<?xml version="1.0" encoding="UTF-8"?>
<svg id="Layer_1" data-name="Layer 1" xmlns="http://www.w3.org/2000/svg" xmlns:xlink="http://www.w3.org/1999/xlink" viewBox="0 0 1094.22 720">
  <defs>
    <style>
      .cls-1 {
        fill: url(#linear-gradient-12);
      }

      .cls-1, .cls-2, .cls-3, .cls-4, .cls-5, .cls-6, .cls-7, .cls-8, .cls-9, .cls-10, .cls-11, .cls-12, .cls-13, .cls-14, .cls-15, .cls-16, .cls-17, .cls-18, .cls-19, .cls-20, .cls-21, .cls-22, .cls-23, .cls-24, .cls-25, .cls-26, .cls-27, .cls-28, .cls-29, .cls-30, .cls-31, .cls-32, .cls-33, .cls-34, .cls-35, .cls-36, .cls-37 {
        stroke-width: 0px;
      }

      .cls-2 {
        fill: url(#linear-gradient-17);
      }

      .cls-3 {
        fill: url(#linear-gradient-19);
      }

      .cls-4 {
        fill: url(#linear-gradient);
      }

      .cls-5 {
        fill: url(#linear-gradient-21);
      }

      .cls-6 {
        opacity: .38;
      }

      .cls-6, .cls-15 {
        fill: #fff;
      }

      .cls-7 {
        fill: url(#linear-gradient-6);
      }

      .cls-8 {
        fill: url(#linear-gradient-15);
      }

      .cls-9 {
        fill: url(#linear-gradient-11);
      }

      .cls-10 {
        fill: url(#linear-gradient-5);
      }

      .cls-11 {
        fill: #f5f9ff;
      }

      .cls-12 {
        fill: url(#linear-gradient-13);
      }

      .cls-13 {
        fill: url(#linear-gradient-16);
      }

      .cls-14 {
        fill: url(#linear-gradient-22);
      }

      .cls-16 {
        fill: #205cc8;
      }

      .cls-17 {
        fill: url(#linear-gradient-20);
      }

      .cls-18 {
        fill: #e8ebf0;
      }

      .cls-19 {
        fill: url(#linear-gradient-14);
      }

      .cls-20 {
        fill: url(#linear-gradient-2);
      }

      .cls-21 {
        fill: #d6dce5;
      }

      .cls-22 {
        fill: #ffd73e;
      }

      .cls-23 {
        fill: #bbd0ef;
      }

      .cls-24 {
        fill: url(#linear-gradient-7);
      }

      .cls-25 {
        fill: url(#linear-gradient-3);
      }

      .cls-26 {
        fill: url(#linear-gradient-9);
      }

      .cls-27 {
        fill: #fc9202;
      }

      .cls-28 {
        fill: #f2f5f9;
        opacity: .28;
      }

      .cls-29 {
        fill: url(#linear-gradient-8);
      }

      .cls-30 {
        fill: url(#linear-gradient-18);
      }

      .cls-31 {
        fill: #9660f3;
      }

      .cls-32 {
        fill: #d9256a;
      }

      .cls-33 {
        fill: url(#linear-gradient-10);
      }

      .cls-34 {
        fill: url(#linear-gradient-4);
      }

      .cls-35 {
        fill: #fcfcfc;
      }

      .cls-36 {
        fill: #ecedef;
      }

      .cls-37 {
        fill: url(#linear-gradient-23);
        opacity: .11;
      }
    </style>
    <linearGradient id="linear-gradient" x1="551.84" y1="-156.44" x2="487.25" y2="559.98" gradientUnits="userSpaceOnUse">
      <stop offset=".13" stop-color="#6d72f5"/>
      <stop offset=".45" stop-color="#a35be3"/>
      <stop offset=".83" stop-color="#c750b9"/>
      <stop offset=".95" stop-color="#e0499e"/>
    </linearGradient>
    <linearGradient id="linear-gradient-2" x1="419.71" y1="352.68" x2="265.56" y2="511.23" xlink:href="#linear-gradient"/>
    <linearGradient id="linear-gradient-3" x1="367.52" y1="318.74" x2="344.53" y2="549.72" xlink:href="#linear-gradient"/>
    <linearGradient id="linear-gradient-4" x1="378.71" y1="350.57" x2="377.24" y2="547.3" xlink:href="#linear-gradient"/>
    <linearGradient id="linear-gradient-5" x1="407.28" y1="423.34" x2="403.37" y2="554.49" xlink:href="#linear-gradient"/>
    <linearGradient id="linear-gradient-6" x1="308.98" y1="381.15" x2="441.9" y2="381.15" xlink:href="#linear-gradient"/>
    <linearGradient id="linear-gradient-7" x1="466.9" y1="263.93" x2="455.53" y2="334.35" xlink:href="#linear-gradient"/>
    <linearGradient id="linear-gradient-8" x1="377.1" y1="243.7" x2="505.31" y2="427.7" xlink:href="#linear-gradient"/>
    <linearGradient id="linear-gradient-9" x1="770.99" y1="656.14" x2="643.75" y2="424.19" gradientUnits="userSpaceOnUse">
      <stop offset=".4" stop-color="#9660f3"/>
      <stop offset=".91" stop-color="#eb2a7d"/>
    </linearGradient>
    <linearGradient id="linear-gradient-10" x1="781.1" y1="650.59" x2="653.87" y2="418.64" xlink:href="#linear-gradient-9"/>
    <linearGradient id="linear-gradient-11" x1="801.35" y1="651.87" x2="687.61" y2="444.53" xlink:href="#linear-gradient-9"/>
    <linearGradient id="linear-gradient-12" x1="819.94" y1="641.67" x2="706.21" y2="434.33" xlink:href="#linear-gradient-9"/>
    <linearGradient id="linear-gradient-13" x1="626.69" y1="324.73" x2="658.85" y2="324.73" xlink:href="#linear-gradient-9"/>
    <linearGradient id="linear-gradient-14" x1="551.56" y1="267.28" x2="541.17" y2="382.54" xlink:href="#linear-gradient-9"/>
    <linearGradient id="linear-gradient-15" x1="569.11" y1="398.08" x2="596.11" y2="398.08" gradientUnits="userSpaceOnUse">
      <stop offset=".16" stop-color="#c750b9"/>
      <stop offset=".95" stop-color="#e0499e"/>
    </linearGradient>
    <linearGradient id="linear-gradient-16" x1="594.82" x2="619.27" xlink:href="#linear-gradient-15"/>
    <linearGradient id="linear-gradient-17" x1="596.11" y1="369.29" x2="627.52" y2="369.29" xlink:href="#linear-gradient-15"/>
    <linearGradient id="linear-gradient-18" x1="560.29" y1="370.52" x2="598.21" y2="370.52" xlink:href="#linear-gradient-15"/>
    <linearGradient id="linear-gradient-19" x1="593.96" y1="140.82" x2="626.26" y2="140.82" xlink:href="#linear-gradient-15"/>
    <linearGradient id="linear-gradient-20" x1="561.73" y1="140.78" x2="597.6" y2="140.78" xlink:href="#linear-gradient-15"/>
    <linearGradient id="linear-gradient-21" x1="574.56" y1="225.99" x2="613.45" y2="225.99" gradientUnits="userSpaceOnUse">
      <stop offset="0" stop-color="#9660f3"/>
      <stop offset=".91" stop-color="#eb2a7d"/>
    </linearGradient>
    <linearGradient id="linear-gradient-22" x1="575.28" y1="227.84" x2="613.45" y2="227.84" xlink:href="#linear-gradient"/>
    <linearGradient id="linear-gradient-23" x1="846.6" y1="92.3" x2="289.77" y2="825.7" xlink:href="#linear-gradient-9"/>
  </defs>
  <path class="cls-4" d="m229.38,551.08c-28.54-23.67-50.97-55.94-64.13-92.25-9.76-26.93-14.45-56.69-9.17-85.06,6.17-33.14,25.97-62.49,51.9-81.14,25.94-18.65,57.59-26.95,88.67-25.94-3.38-25.07-6.35-50.64-2.64-75.66,7.74-52.21,47.06-97.15,94.63-108.16,47.57-11.01,100.31,12.61,126.95,56.85,23.93-32.87,60.72-54.3,99.15-57.75,38.43-3.45,77.95,11.11,106.52,39.26,32.92,32.43,49.84,89.11,26.75,130.37,19.93.75,46.69,19.05,59.75,32.62,34.69,36.04,42.5,79,40.75,131.13-1.75,52.13-24.86,102.99-61.87,136.18"/>
  <path class="cls-15" d="m403.3,191.06l2.56,2.39,2.32-1.33c.67.42,1.35.78,2.06,1.09l.32,2.74,3.35.75,1.36-2.36h-.01c.39,0,.78,0,1.17-.02.39-.02.78-.06,1.17-.11h-.01s1.6,2.21,1.6,2.21l3.26-1.09.04-2.76c.67-.37,1.32-.8,1.94-1.29l2.45,1.09,2.29-2.63-1.3-2.41c.41-.69.76-1.4,1.05-2.14l2.64-.32.71-3.47-2.28-1.42c0-.4,0-.8-.02-1.2-.02-.4-.06-.81-.11-1.21h0s2.13-1.63,2.13-1.63l-1.06-3.38-2.66-.05c-.37-.69-.78-1.37-1.26-2.01l1.04-2.53-2.55-2.38-2.32,1.33c-.67-.43-1.36-.79-2.06-1.09l-.32-2.73-3.36-.75-1.36,2.36c-.39,0-.78,0-1.16.02-.39.02-.78.06-1.16.1l-1.58-2.21-3.26,1.09-.04,2.75c-.67.38-1.32.81-1.94,1.3l-2.44-1.09-2.3,2.63,1.3,2.41c-.41.69-.76,1.4-1.05,2.13l-2.64.32-.71,3.47,2.28,1.42h0c0,.39-.01.8.02,1.2.01.39.06.8.1,1.19l-2.12,1.64,1.06,3.38,2.66.05c.36.7.78,1.37,1.26,2.01l-1.05,2.53Zm4.47-18.92c3.92-4.5,10.63-4.85,14.99-.77,4.36,4.07,4.72,11.03.8,15.53-3.92,4.5-10.63,4.84-14.99.77-4.36-4.08-4.72-11.03-.8-15.53Z"/>
  <path class="cls-15" d="m403.25,191.11c.85.8,1.7,1.59,2.56,2.39.03.02.06.02.09,0,.47-.27.94-.54,1.41-.81.21-.12.55-.41.78-.45.3-.05.76.35,1.07.52.31.16.88.31,1.03.59.11.22.08.68.11.93.06.55.13,1.11.19,1.66,0,.03.02.06.06.07,1.12.25,2.24.5,3.35.75.03,0,.06,0,.08-.04.45-.79.91-1.57,1.36-2.36.02-.03,0-.08-.03-.1.62.32,1.67.17,2.26-.12-.04.02-.07.07-.04.11.53.74,1.06,1.47,1.6,2.21.02.03.05.04.08.03,1.09-.36,2.17-.72,3.26-1.09.03-.01.05-.04.05-.07,0-.56.01-1.11.02-1.67,0-.25-.08-.7.01-.93.11-.29.67-.5.96-.69.29-.19.71-.64,1.01-.63.24.01.61.27.83.37.49.22.99.44,1.48.66.03.01.06,0,.09-.02.76-.88,1.53-1.76,2.29-2.63.02-.03.02-.06,0-.09-.26-.49-.52-.97-.79-1.46-.12-.22-.4-.57-.44-.81-.05-.31.34-.79.5-1.11.16-.32.3-.92.57-1.06.21-.11.66-.08.89-.11.53-.06,1.07-.13,1.6-.19.03,0,.06-.02.07-.06.24-1.16.47-2.31.71-3.47,0-.03,0-.06-.04-.08-.57-.36-1.15-.71-1.72-1.07-.4-.25-.43-.23-.52-.68-.12-.62.16-1.42-.26-1.95.02.03.07.05.1.02.71-.55,1.42-1.09,2.13-1.64.03-.02.04-.05.03-.09-.35-1.13-.71-2.25-1.06-3.38-.01-.03-.04-.05-.07-.05-.54,0-1.07-.02-1.61-.03-.24,0-.68.07-.9-.02-.29-.12-.49-.69-.68-.99-.19-.3-.62-.74-.61-1.05.01-.25.26-.63.35-.85.21-.51.42-1.02.63-1.53.01-.03,0-.07-.02-.09-.85-.79-1.7-1.59-2.55-2.38-.02-.02-.06-.02-.09,0-.47.27-.94.54-1.41.81-.21.12-.55.41-.78.45-.3.05-.77-.36-1.07-.52-.31-.16-.88-.31-1.02-.59-.11-.22-.08-.68-.11-.92-.06-.55-.13-1.1-.19-1.66,0-.03-.02-.06-.06-.07-1.12-.25-2.24-.5-3.36-.75-.03,0-.06,0-.08.04-.27.48-.55.95-.82,1.43-.12.21-.27.65-.46.8-.24.19-.84.09-1.18.11-.34.02-.93.18-1.19.02-.2-.13-.4-.56-.54-.75-.32-.45-.64-.89-.96-1.34-.02-.03-.05-.04-.08-.03-1.09.36-2.18.72-3.26,1.09-.03.01-.05.04-.05.07,0,.56-.01,1.11-.02,1.67,0,.25.07.7-.01.93-.11.3-.67.5-.96.7-.29.2-.71.64-1.01.63-.24-.01-.61-.27-.83-.37-.49-.22-.99-.44-1.48-.66-.03-.01-.06,0-.09.02-.77.88-1.53,1.76-2.3,2.63-.02.03-.02.06,0,.09.26.49.53.97.79,1.46.12.22.4.57.44.81.05.31-.34.79-.5,1.11-.16.32-.3.91-.57,1.06-.21.11-.66.08-.89.11-.53.06-1.07.13-1.6.19-.03,0-.06.02-.07.06-.24,1.16-.47,2.31-.71,3.47,0,.03,0,.06.04.08.76.47,1.52.94,2.28,1.42.03.02.08,0,.1-.03-.22.57-.1,1.17-.07,1.77.03.64.05.57-.43.93-.53.41-1.07.83-1.6,1.24-.03.02-.04.05-.03.09.35,1.13.71,2.25,1.06,3.38.01.03.04.05.07.05.54,0,1.08.02,1.62.03.24,0,.68-.08.9.02.28.12.48.69.67.99.19.3.62.74.61,1.05-.01.25-.26.63-.35.85-.21.51-.42,1.02-.64,1.53-.04.09.09.16.13.07.28-.68.87-1.58.96-2.31.09-.79-.78-1.58-1.17-2.3-.01-.02-.04-.03-.06-.03-.56-.01-2.27.24-2.6-.03-.19-.15-.27-.86-.35-1.11-.18-.58-.48-1.22-.57-1.82-.08-.51-.18-.21.17-.6.37-.41.93-.71,1.37-1.06.84-.68.32-1.72.34-2.8,0-.07-.11-.1-.13-.03.09-.22-2.05-1.19-2.12-1.54-.09-.49.28-1.35.38-1.84.05-.23.16-1.3.27-1.39.57-.5,2,.09,2.64-.33.15-.1,1.09-1.98,1.07-2.17-.02-.22-.22-.46-.33-.66-.22-.41-.89-1.23-.91-1.69,0-.23.45-.64.69-.93.37-.42.82-1.19,1.3-1.48.41-.25.36-.15.98.13.37.17,1.16.72,1.57.7.38-.02.91-.59,1.25-.81.27-.18.68-.32.83-.59.21-.38.02-1.48.02-1.91,0-.75-.12-.65.48-.9.69-.28,1.43-.48,2.13-.71.69-.23.56-.2.99.41.37.52.75,1.04,1.12,1.57.01.02.04.04.06.03.54-.06,1.94.14,2.36-.14.25-.16.48-.83.63-1.08.15-.26.58-1.21.74-1.25.44-.12,1.44.32,1.88.42.24.05,1.25.17,1.35.28.24.3.18,1.51.22,1.9.03.22,0,.66.12.85.15.23,1.88,1.12,2.12,1.11.75-.02,1.72-1.38,2.35-1.27.33.06,2.39,2.01,2.43,2.25.14.77-1.1,1.76-1.03,2.56.02.26,1.09,1.91,1.3,2.05.27.17,1.05.02,1.36.03.56.01,1.09-.11,1.34.22.39.53.51,1.62.71,2.25.24.77.39.73-.22,1.19-.21.16-1.59,1.16-1.52,1.25-.04-.05-.14-.04-.13.04.07.58-.12,1.97.14,2.44.09.17.55.35.69.44.3.19,1.45.65,1.58.98.04.1-.2.91-.24,1.11-.12.57-.13,1.55-.42,2.05-.19.32-.23.23-.76.29-.45.05-1.39-.03-1.78.21-.3.19-.36.55-.53.92-.15.32-.69,1.01-.67,1.34.03.42.59,1.09.79,1.46.16.29.47.77.44.95-.07.4-1,1.14-1.26,1.45-.18.21-.67,1-.94,1.07-.16.05-1.16-.54-1.42-.65-.25-.11-.71-.44-.98-.44-.45,0-1.55,1.05-1.99,1.3-.02.01-.03.04-.03.07,0,.7.19,1.78-.03,2.43-.17.51-.93.58-1.59.79-.63.21-1.33.64-1.74.31-.29-.24-1.18-1.96-1.43-1.84.07-.03.06-.16-.03-.14-.78.1-1.55.14-2.34.12-.07,0-.09.11-.03.14-.19-.1-.97,1.74-1.22,1.99-.37.37-1.11.01-1.76-.13-.66-.15-1.46-.12-1.66-.63-.27-.69.08-1.78-.28-2.42-.11-.2-1.93-1.17-2.15-1.15-.53.04-1.32.75-1.78,1.02-.73.42-.7.13-1.36-.49-.56-.52-1.12-1.04-1.67-1.56-.07-.06-.16.05-.1.11Z"/>
  <path class="cls-15" d="m407.82,172.19c3.01-3.33,7.7-4.53,11.83-2.77,4,1.71,6.64,5.89,6.56,10.36-.08,4.61-3.09,8.76-7.33,10.15-4.24,1.39-8.95-.21-11.64-3.87-3.06-4.17-2.67-9.99.58-13.87.06-.07-.05-.17-.11-.1-2.89,3.45-3.59,8.36-1.55,12.47,2.1,4.23,6.7,6.62,11.22,5.88,4.32-.71,7.87-4.22,8.74-8.65.91-4.56-1.13-9.35-4.99-11.76-4.39-2.74-9.98-1.75-13.43,2.06-.06.07.04.17.11.1Z"/>
  <path class="cls-15" d="m377.78,228.49l1.4,1.3,1.27-.73c.36.23.74.43,1.13.59l.17,1.49,1.83.41.74-1.29h0c.21,0,.43,0,.64,0,.21,0,.43-.03.64-.06h0s.87,1.21.87,1.21l1.78-.59.02-1.51c.37-.2.72-.44,1.06-.71l1.34.59,1.25-1.44-.71-1.31c.22-.38.41-.77.57-1.17l1.44-.17.39-1.9-1.25-.77c0-.22,0-.44-.01-.65,0-.22-.03-.44-.06-.66h0s1.16-.89,1.16-.89l-.58-1.85-1.45-.03c-.2-.38-.43-.75-.69-1.1l.57-1.38-1.39-1.3-1.27.73c-.37-.23-.74-.43-1.13-.6l-.17-1.49-1.83-.41-.74,1.29c-.21,0-.42,0-.63.01-.21,0-.43.03-.64.06l-.86-1.21-1.78.59-.02,1.5c-.37.21-.72.44-1.06.71l-1.33-.6-1.25,1.44.71,1.32c-.22.38-.41.76-.57,1.16l-1.44.17-.39,1.9,1.25.77h0c0,.21,0,.43,0,.66,0,.22.03.44.06.65l-1.16.9.58,1.85,1.45.03c.2.38.43.75.69,1.1l-.57,1.38Zm2.44-10.33c2.14-2.46,5.81-2.65,8.19-.42,2.38,2.23,2.58,6.02.43,8.48-2.14,2.46-5.81,2.65-8.19.42-2.38-2.23-2.58-6.02-.44-8.48Z"/>
  <path class="cls-15" d="m377.75,228.52c.47.43.93.87,1.4,1.3.01.01.03.01.05,0,.26-.15.51-.29.77-.44.11-.07.3-.23.43-.25.17-.03.42.19.59.28.17.09.48.17.56.32.06.12.04.37.06.51.04.3.07.6.11.91,0,.02.01.03.03.04.61.14,1.22.27,1.83.41.02,0,.03,0,.04-.02.25-.43.5-.86.74-1.29.01-.02,0-.05-.02-.05.34.17.91.09,1.23-.07-.02.01-.04.04-.02.06l.87,1.21s.03.02.05.02c.59-.2,1.19-.4,1.78-.59.02,0,.03-.02.03-.04,0-.3,0-.61.01-.91,0-.13-.04-.38,0-.51.06-.16.36-.27.52-.38.16-.11.39-.35.55-.34.13,0,.33.15.45.2l.81.36s.03,0,.05,0c.42-.48.84-.96,1.25-1.44.01-.01.01-.03,0-.05-.14-.27-.29-.53-.43-.8-.06-.12-.22-.31-.24-.44-.03-.17.19-.43.27-.61.09-.17.16-.5.31-.58.12-.06.36-.04.49-.06.29-.03.58-.07.87-.1.02,0,.03-.01.04-.03.13-.63.26-1.26.39-1.9,0-.02,0-.04-.02-.04-.31-.19-.63-.39-.94-.58-.22-.14-.23-.13-.28-.37-.07-.34.09-.77-.14-1.07.01.02.04.03.05.01.39-.3.77-.6,1.16-.9.01-.01.02-.03.02-.05-.19-.62-.39-1.23-.58-1.85,0-.02-.02-.03-.04-.03-.29,0-.59-.01-.88-.02-.13,0-.37.04-.49,0-.16-.06-.27-.38-.37-.54-.1-.16-.34-.4-.33-.58,0-.14.14-.34.19-.47.12-.28.23-.56.35-.84,0-.02,0-.04,0-.05-.46-.43-.93-.87-1.39-1.3-.01-.01-.03-.01-.05,0-.26.15-.51.29-.77.44-.11.07-.3.23-.43.25-.17.03-.42-.19-.59-.28-.17-.09-.48-.17-.56-.32-.06-.12-.04-.37-.06-.5-.04-.3-.07-.6-.11-.91,0-.02-.01-.03-.03-.04-.61-.14-1.22-.27-1.83-.41-.02,0-.03,0-.04.02-.15.26-.3.52-.45.78-.06.11-.15.36-.25.44-.13.1-.46.05-.64.06-.19,0-.51.1-.65,0-.11-.07-.22-.3-.29-.41-.17-.24-.35-.49-.52-.73-.01-.01-.03-.02-.04-.02-.59.2-1.19.4-1.78.59-.02,0-.03.02-.03.04,0,.3,0,.61-.01.91,0,.13.04.38,0,.51-.06.16-.36.28-.52.38-.16.11-.39.35-.55.34-.13,0-.33-.15-.45-.2-.27-.12-.54-.24-.81-.36-.02,0-.03,0-.05,0-.42.48-.84.96-1.25,1.44-.01.01-.01.03,0,.05.14.27.29.53.43.8.06.12.22.31.24.44.03.17-.19.43-.27.61-.09.17-.16.5-.31.58-.12.06-.36.04-.49.06-.29.04-.58.07-.88.11-.02,0-.03.01-.04.03-.13.63-.26,1.26-.39,1.9,0,.02,0,.04.02.04.42.26.83.52,1.25.77.02.01.05,0,.05-.02-.12.31-.06.64-.04.97.02.35.02.31-.23.51-.29.23-.58.45-.88.68-.01.01-.02.03-.02.05.19.62.39,1.23.58,1.85,0,.02.02.03.04.03.29,0,.59.01.88.02.13,0,.37-.04.49,0,.15.06.26.38.37.54.1.17.34.4.33.57,0,.14-.14.34-.19.47-.12.28-.23.56-.35.84-.02.05.05.09.07.04.15-.37.48-.86.52-1.26.05-.43-.43-.86-.64-1.26,0-.01-.02-.02-.03-.02-.3,0-1.24.13-1.42-.02-.1-.08-.15-.47-.19-.6-.1-.31-.26-.66-.31-.99-.04-.28-.1-.12.09-.33.2-.23.51-.39.75-.58.46-.37.18-.94.18-1.53,0-.04-.06-.05-.07-.02.05-.12-1.12-.65-1.16-.84-.05-.27.15-.74.21-1,.03-.13.09-.71.15-.76.31-.27,1.09.05,1.44-.18.08-.05.59-1.08.59-1.18,0-.12-.12-.25-.18-.36-.12-.22-.49-.67-.5-.92,0-.13.24-.35.38-.51.2-.23.45-.65.71-.81.22-.14.2-.08.54.07.2.09.63.39.86.38.21-.01.5-.32.68-.44.15-.1.37-.17.45-.32.11-.21.01-.81.01-1.04,0-.41-.07-.36.26-.49.38-.16.78-.26,1.17-.39.37-.12.3-.11.54.22.2.29.41.57.61.86,0,.01.02.02.03.02.3-.03,1.06.08,1.29-.07.14-.09.26-.45.34-.59.08-.14.32-.66.41-.68.24-.07.78.18,1.03.23.13.03.68.09.74.16.13.16.1.82.12,1.04.01.12,0,.36.06.46.08.13,1.03.61,1.16.61.41,0,.94-.76,1.28-.69.18.03,1.31,1.1,1.33,1.23.08.42-.6.96-.56,1.4.01.14.59,1.05.71,1.12.15.09.57.01.74.02.31,0,.59-.06.73.12.21.29.28.89.39,1.23.13.42.21.4-.12.65-.11.09-.87.63-.83.68-.02-.03-.08-.02-.07.02.04.32-.06,1.08.08,1.34.05.09.3.19.38.24.17.1.79.35.87.54.02.06-.11.5-.13.6-.06.31-.07.85-.23,1.12-.1.17-.13.12-.41.16-.25.03-.76-.02-.97.12-.16.1-.19.3-.29.5-.08.17-.38.55-.36.73.02.23.32.6.43.8.09.16.26.42.24.52-.04.22-.54.62-.69.79-.1.11-.37.54-.51.59-.09.03-.64-.3-.77-.36-.14-.06-.39-.24-.54-.24-.25,0-.85.57-1.09.71-.01,0-.02.02-.02.04,0,.38.1.97-.02,1.33-.09.28-.51.31-.87.43-.35.12-.72.35-.95.17-.16-.13-.65-1.07-.78-1.01.04-.02.03-.08-.01-.08-.43.05-.85.08-1.28.06-.04,0-.05.06-.02.08-.1-.05-.53.95-.67,1.09-.2.2-.61,0-.96-.07-.36-.08-.8-.07-.91-.34-.15-.38.04-.97-.15-1.32-.06-.11-1.05-.64-1.17-.63-.29.02-.72.41-.97.56-.4.23-.38.07-.74-.27-.3-.28-.61-.57-.91-.85-.04-.04-.09.02-.05.06Z"/>
  <path class="cls-15" d="m380.25,218.19c1.65-1.82,4.21-2.48,6.46-1.51,2.19.93,3.62,3.22,3.58,5.66-.05,2.52-1.69,4.79-4,5.54-2.31.76-4.89-.11-6.36-2.12-1.67-2.28-1.46-5.46.32-7.58.03-.04-.03-.09-.06-.05-1.58,1.88-1.96,4.57-.85,6.81,1.15,2.31,3.66,3.62,6.13,3.21,2.36-.39,4.3-2.3,4.78-4.73.49-2.49-.61-5.11-2.72-6.42-2.4-1.5-5.45-.96-7.34,1.12-.03.04.02.09.06.05Z"/>
  <path class="cls-15" d="m421.37,227.01l2.06,1.93,1.87-1.08c.54.34,1.09.63,1.66.88l.26,2.21,2.71.6,1.1-1.9h-.01c.32,0,.63,0,.95-.01.31-.01.63-.05.94-.09h-.01s1.29,1.79,1.29,1.79l2.63-.88.03-2.23c.54-.3,1.06-.65,1.56-1.04l1.97.88,1.85-2.13-1.05-1.94c.33-.56.61-1.13.85-1.72l2.13-.25.57-2.8-1.84-1.14c0-.32,0-.65-.02-.97-.01-.33-.05-.65-.09-.98h0s1.72-1.32,1.72-1.32l-.86-2.73-2.15-.04c-.3-.56-.63-1.1-1.02-1.62l.84-2.04-2.06-1.93-1.87,1.08c-.54-.35-1.1-.63-1.66-.88l-.26-2.21-2.71-.61-1.1,1.91c-.31,0-.63,0-.94.02-.31.01-.63.04-.94.08l-1.28-1.79-2.64.88-.03,2.22c-.54.31-1.06.66-1.56,1.05l-1.97-.88-1.85,2.13,1.05,1.94c-.33.55-.61,1.13-.84,1.72l-2.13.26-.57,2.8,1.84,1.14h0c0,.31,0,.64.01.97.01.32.05.65.08.96l-1.72,1.33.86,2.73,2.15.04c.29.56.63,1.1,1.02,1.62l-.85,2.04Zm3.61-15.27c3.16-3.63,8.59-3.91,12.11-.62,3.52,3.29,3.81,8.9.64,12.54-3.16,3.63-8.59,3.91-12.1.62-3.52-3.29-3.81-8.91-.64-12.54Z"/>
  <path class="cls-15" d="m421.34,227.05c.69.64,1.38,1.28,2.06,1.93.02.02.05.02.07,0,.38-.22.76-.44,1.14-.65.17-.1.44-.33.63-.36.24-.04.62.29.87.42.25.13.71.25.83.48.09.18.06.55.09.75.05.45.1.89.16,1.34,0,.03.02.05.05.06.9.2,1.81.4,2.71.6.03,0,.05,0,.06-.03.37-.63.73-1.27,1.1-1.9.02-.03,0-.07-.02-.08.5.26,1.35.14,1.82-.1-.03.02-.05.05-.03.09.43.59.86,1.19,1.29,1.78.02.02.04.03.07.02.88-.29,1.76-.58,2.63-.88.03,0,.04-.03.04-.06,0-.45.01-.9.02-1.35,0-.2-.06-.57,0-.75.09-.24.54-.4.77-.56.24-.16.57-.52.82-.51.19,0,.49.22.67.3l1.2.53s.05,0,.07-.01c.62-.71,1.23-1.42,1.85-2.13.02-.02.02-.05,0-.07-.21-.39-.42-.79-.64-1.18-.09-.17-.32-.46-.35-.66-.04-.25.27-.64.4-.9.13-.26.24-.74.46-.86.17-.09.53-.06.72-.09.43-.05.86-.1,1.29-.15.03,0,.05-.02.05-.05.19-.93.38-1.87.57-2.8,0-.03,0-.05-.03-.07-.46-.29-.93-.58-1.39-.86-.33-.2-.35-.19-.42-.55-.1-.5.13-1.14-.21-1.58.02.02.05.04.08.02.57-.44,1.14-.88,1.72-1.33.02-.02.03-.04.02-.07-.29-.91-.57-1.82-.86-2.73,0-.03-.03-.04-.06-.04-.43,0-.87-.02-1.3-.02-.19,0-.55.06-.73-.01-.23-.09-.39-.56-.55-.8-.15-.24-.5-.6-.49-.85,0-.2.21-.51.28-.69.17-.41.34-.82.51-1.24.01-.02,0-.05-.01-.07-.69-.64-1.37-1.28-2.06-1.93-.02-.02-.05-.02-.07,0-.38.22-.76.44-1.14.65-.17.1-.44.33-.63.36-.24.04-.62-.29-.87-.42-.25-.13-.71-.25-.82-.48-.09-.18-.06-.55-.09-.75-.05-.45-.1-.89-.16-1.34,0-.03-.02-.05-.05-.06-.9-.2-1.81-.4-2.71-.61-.03,0-.05,0-.06.03-.22.39-.44.77-.66,1.16-.1.17-.22.53-.37.64-.2.15-.67.07-.95.09-.27.01-.75.15-.96.01-.16-.1-.32-.45-.43-.6-.26-.36-.52-.72-.78-1.08-.02-.02-.04-.03-.07-.02-.88.29-1.76.59-2.64.88-.03,0-.04.03-.04.06,0,.45-.01.9-.02,1.35,0,.2.06.56,0,.75-.09.24-.54.41-.77.56-.23.16-.57.52-.82.51-.19,0-.49-.22-.67-.3-.4-.18-.8-.36-1.2-.53-.02-.01-.05,0-.07.01-.62.71-1.24,1.42-1.85,2.13-.02.02-.02.05,0,.07.21.39.42.79.64,1.18.09.17.33.46.36.66.04.25-.27.64-.4.9-.13.26-.24.74-.46.85-.17.09-.53.06-.72.09-.43.05-.86.1-1.29.16-.03,0-.05.02-.05.05-.19.93-.38,1.87-.57,2.8,0,.03,0,.05.03.07.61.38,1.23.76,1.84,1.14.03.02.07,0,.08-.03-.18.46-.08.94-.06,1.43.03.52.04.46-.35.75-.43.33-.86.67-1.3,1-.02.02-.03.04-.02.07.29.91.57,1.82.86,2.73,0,.03.03.04.06.04.43,0,.87.02,1.3.02.19,0,.55-.06.73.01.23.09.39.56.54.8.15.24.5.59.49.85,0,.2-.21.51-.29.69-.17.41-.34.82-.51,1.24-.03.07.07.13.1.06.23-.55.71-1.28.77-1.86.07-.64-.63-1.27-.94-1.86-.01-.02-.03-.03-.05-.03-.45,0-1.84.19-2.1-.02-.15-.12-.22-.7-.28-.89-.15-.46-.39-.98-.46-1.47-.06-.41-.14-.17.14-.49.3-.33.75-.57,1.1-.85.68-.55.26-1.39.27-2.26,0-.06-.09-.08-.11-.02.07-.18-1.66-.96-1.71-1.24-.07-.4.22-1.09.3-1.48.04-.19.13-1.05.22-1.13.46-.4,1.61.07,2.13-.26.12-.08.88-1.6.87-1.75-.01-.18-.18-.37-.26-.53-.18-.33-.72-.99-.73-1.36,0-.19.36-.52.56-.75.3-.34.66-.96,1.05-1.2.33-.2.29-.12.79.1.3.13.94.58,1.27.57.31-.02.74-.48,1.01-.65.22-.14.55-.25.67-.47.17-.31.02-1.19.02-1.54,0-.61-.1-.53.38-.73.56-.23,1.15-.38,1.72-.57.55-.18.45-.16.8.33.3.42.6.84.91,1.27.01.02.03.03.05.03.44-.05,1.56.11,1.91-.11.21-.13.39-.67.51-.87.12-.21.47-.97.6-1.01.36-.1,1.16.26,1.52.34.2.04,1.01.13,1.09.23.2.24.14,1.22.18,1.53.02.17,0,.53.09.68.12.19,1.52.9,1.71.9.61-.01,1.39-1.12,1.89-1.02.27.05,1.93,1.62,1.96,1.82.11.62-.89,1.42-.83,2.06.02.21.88,1.55,1.05,1.65.22.14.85.02,1.1.02.46,0,.88-.09,1.08.18.31.43.41,1.31.57,1.82.2.63.31.59-.18.96-.17.13-1.28.93-1.22,1.01-.03-.04-.11-.03-.11.04.06.47-.1,1.59.12,1.97.08.14.45.28.56.35.25.15,1.17.52,1.28.79.03.08-.16.74-.2.89-.09.46-.1,1.25-.34,1.65-.15.26-.19.18-.61.24-.36.04-1.12-.02-1.43.17-.24.15-.29.45-.43.74-.12.26-.56.81-.54,1.08.03.34.48.88.64,1.18.13.24.38.62.35.76-.05.32-.8.92-1.02,1.17-.15.17-.54.8-.76.87-.13.04-.94-.44-1.14-.53-.2-.09-.58-.35-.79-.35-.36,0-1.25.85-1.61,1.05-.02.01-.03.03-.03.05,0,.57.15,1.44-.03,1.96-.14.41-.75.47-1.28.64-.51.17-1.07.52-1.4.25-.24-.19-.96-1.59-1.15-1.49.05-.03.05-.13-.02-.12-.63.08-1.25.11-1.89.1-.06,0-.07.09-.02.11-.15-.08-.78,1.41-.98,1.6-.3.3-.89,0-1.42-.11-.53-.12-1.18-.1-1.34-.51-.22-.56.06-1.44-.23-1.96-.09-.16-1.56-.94-1.73-.93-.43.04-1.06.61-1.43.82-.59.34-.56.11-1.1-.39-.45-.42-.9-.84-1.35-1.26-.06-.05-.13.04-.08.09Z"/>
  <path class="cls-15" d="m425.03,211.77c2.43-2.69,6.22-3.66,9.55-2.24,3.23,1.38,5.36,4.76,5.29,8.36-.07,3.72-2.5,7.07-5.92,8.2-3.42,1.12-7.22-.17-9.4-3.13-2.47-3.37-2.16-8.06.47-11.2.05-.06-.04-.14-.09-.08-2.33,2.78-2.9,6.75-1.25,10.07,1.7,3.41,5.41,5.35,9.06,4.75,3.49-.57,6.35-3.41,7.06-6.99.73-3.69-.91-7.55-4.03-9.49-3.54-2.21-8.06-1.42-10.84,1.66-.05.06.04.14.09.08Z"/>
  <rect class="cls-16" x="287.57" y="258.44" width="472.87" height="301.86" rx="5.3" ry="5.3"/>
  <rect class="cls-18" x="288.35" y="264.48" width="453.64" height="285.22" rx="5.3" ry="5.3"/>
  <polygon class="cls-6" points="472.34 264.48 317.46 549.69 466.42 549.69 695.02 264.48 472.34 264.48"/>
  <path class="cls-16" d="m228.4,549.69h581.25c5.65,0,9.07,6.25,6.03,11.01l-.88,1.38c-1.31,2.06-3.59,3.3-6.03,3.3H229.43c-2.27,0-4.4-1.08-5.75-2.9l-1.02-1.38c-3.49-4.72-.12-11.41,5.75-11.41Z"/>
  <rect class="cls-20" x="317.46" y="352.68" width="12.97" height="197.02"/>
  <rect class="cls-25" x="344.37" y="422.54" width="12.97" height="127.15"/>
  <rect class="cls-34" x="371.29" y="402.42" width="12.97" height="147.27"/>
  <rect class="cls-10" x="398.2" y="470.95" width="12.97" height="78.75"/>
  <path class="cls-7" d="m441.68,442.28c-2.11-2.65-4.21-5.3-6.32-7.96-5.01-6.31-10.02-12.61-15.03-18.92-6.11-7.69-12.22-15.37-18.32-23.06-5.26-6.62-10.52-13.24-15.78-19.86-1.74-2.19-3.48-4.38-5.22-6.57-.8-1.01-1.56-2.17-2.46-3.1-.04-.04-.07-.09-.11-.14-.31-.39-.99-.33-1.31,0-4.48,4.66-8.95,9.31-13.43,13.97-.42.44-.84.87-1.26,1.31-5.22-5.89-10.44-11.78-15.66-17.67-8.66-9.78-17.33-19.55-25.99-29.33-1.97-2.22-3.94-4.44-5.9-6.66l2.59-2.39-8.48-3.51,2.12,9.38,2.41-2.23c5.41,6.11,10.83,12.22,16.24,18.33,8.66,9.78,17.33,19.55,25.99,29.33l6,6.77c.33.37.98.34,1.31,0,4.48-4.66,8.95-9.31,13.43-13.97.41-.42.82-.85,1.22-1.27,1.91,2.4,3.82,4.81,5.73,7.21,5.01,6.31,10.02,12.61,15.03,18.92,6.11,7.69,12.22,15.37,18.32,23.06,5.26,6.62,10.52,13.24,15.78,19.86,1.74,2.19,3.48,4.38,5.22,6.57.8,1.01,1.56,2.17,2.46,3.1.04.04.07.09.11.14.74.93,2.04-.39,1.31-1.31Z"/>
  <path class="cls-24" d="m443.05,294.49v34.08h32.32c.03-.57.05-1.14.05-1.71,0-17.87-14.49-32.37-32.37-32.37Z"/>
  <path class="cls-29" d="m440.74,330.78v-34.08c-17.87,0-32.37,14.49-32.37,32.37,0,.7.03,1.4.07,2.09,1.08,16.9,15.12,30.27,32.29,30.27s31.43-13.57,32.32-30.65h-32.32Z"/>
  <rect class="cls-26" x="645.55" y="395.75" width="13.7" height="88.41"/>
  <rect class="cls-33" x="667.96" y="429.47" width="13.7" height="54.7"/>
  <rect class="cls-9" x="710.47" y="486.25" width="12.25" height="22.21"/>
  <rect class="cls-1" x="730.5" y="471.09" width="12.25" height="37.37"/>
  <path class="cls-12" d="m626.69,268.06s18.66,14.47,26.5,39.06c7.85,24.59,5.23,74.28,5.23,74.28l-31.73-29.64"/>
  <path class="cls-19" d="m560.29,268.06s-18.66,14.47-26.5,39.06c-7.85,24.59-5.23,74.28-5.23,74.28l31.73-29.64"/>
  <path class="cls-8" d="m569.11,389.87v16.41h25.71c.37-4.21.81-9.71,1.28-16.41h-26.99Z"/>
  <path class="cls-13" d="m594.82,406.28h24.44v-16.41h-23.16c-.47,6.71-.92,12.2-1.28,16.41Z"/>
  <path class="cls-2" d="m627.32,348.7c-.35,2.53-.57,3.91-.57,3.91h-28.57c-.19,4.38-.39,8.55-.59,12.51-.49,9.49-1,17.78-1.48,24.75h31.41v-41.17h-.2Z"/>
  <path class="cls-30" d="m560.51,352.61s-.08-.51-.22-1.45v38.71h35.81c.49-6.97,1.01-15.26,1.51-24.75.21-3.96.41-8.13.6-12.51h-37.7Z"/>
  <path class="cls-3" d="m626.26,168.44c-6.13-24.87-16.23-45.84-32.3-57.54,1.55,20.74,2.74,40.72,3.64,59.84,9.14.05,18.96-.55,28.66-2.3Z"/>
  <path class="cls-17" d="m593.96,110.9s-.06-.05-.1-.08c-15.91,11.53-25.98,32.15-32.14,56.65,7.69,1.35,20.85,3.19,35.87,3.27-.9-19.12-2.09-39.1-3.64-59.84Z"/>
  <path class="cls-31" d="m625.4,350.57l14.51,13.52s11.73-38.86-5.88-83.48"/>
  <path class="cls-31" d="m561.57,350.57l-14.51,13.52s-11.73-38.86,5.88-83.48"/>
  <path class="cls-11" d="m626.26,168.44c-9.7,1.75-19.53,2.35-28.66,2.3,3.48,74.02,2.57,135.19.78,177.97-.06,1.32-.11,2.62-.17,3.91h29s.22-1.38.58-3.91c2.87-20.15,14.78-114.03-1.53-180.27Z"/>
  <path class="cls-36" d="m597.6,170.74c-15.02-.08-28.18-1.92-35.87-3.27-17.51,69.6-3.39,170.53-1.43,183.7.14.94.22,1.45.22,1.45h37.7c.06-1.29.11-2.59.17-3.91,1.79-42.78,2.7-103.95-.78-177.97Z"/>
  <circle class="cls-32" cx="594" cy="225.99" r="24.55"/>
  <circle class="cls-5" cx="594" cy="225.99" r="19.44"/>
  <path class="cls-14" d="m605.36,210.24c.46,1.65.72,3.39.72,5.18,0,10.74-8.7,19.44-19.44,19.44-4.25,0-8.16-1.38-11.36-3.69,2.27,8.22,9.78,14.26,18.72,14.26,10.74,0,19.44-8.7,19.44-19.44,0-6.49-3.19-12.23-8.08-15.76Z"/>
  <circle class="cls-28" cx="587.94" cy="220.15" r="7.22"/>
  <path class="cls-27" d="m594.67,409.95s-23.01,21.61,0,60.02c0,0,22.01-34.61,0-60.02Z"/>
  <path class="cls-22" d="m594.99,409.95s-17.43,16.36,0,45.46c0,0,16.67-26.21,0-45.46Z"/>
  <path class="cls-23" d="m615.09,494.77c-6.28-12.82-17.44-22.51-29.57-25.7-12.13-3.18-25,.21-34.11,8.99-7.59,7.31-12.6,19.64-9.13,31.13-5.4.17-10.23-4.5-15.41-6.85-4.6-2.08-9.55-2.32-14.32-1.91-17.05,1.46-34.32,13.44-36.84,33.08-1.49,11.56,2.69,24.37,10.59,32.47,7.9,8.1,19.23,11.19,28.72,7.84-8.36,16.47-12.2,39.04-2.05,55.75,7.31,12.03,21.29,18.1,32.77,14.22s19.49-17.41,18.77-31.67c2.74,9.46,6.72,19.04,13.59,25.22,6.87,6.18,17.22,7.79,23.12,1.37,6.74-7.33,4.95-20.64,1.82-31.45,8.68,12.54,22.43,20.19,35.7,19.87,10.57-.25,21.04-5.82,26.19-16.19,5.16-10.37,3.79-25.59-4.37-34.2,10.27-2.99,19.23-11.18,23.23-22.51,4-11.33,2.61-25.67-4.25-35.98-2.31-3.47-5.14-6.43-8.06-9.2-7.87-7.47-16.69-13.86-26.3-16.92-9.61-3.06-20.09-2.54-28.24,3.1"/>
  <path class="cls-35" d="m615.85,488.94c-5.11-9.41-14.58-16.33-25.09-18.35-10.51-2.02-21.87.91-30.1,7.75-6.86,5.7-11.61,15.07-8.92,23.57-4.73.29-8.81-3.06-13.27-4.67-3.96-1.42-8.28-1.45-12.46-1-14.95,1.61-30.41,11.08-33.21,25.86-1.65,8.7,1.62,18.16,8.29,23.99,6.67,5.83,16.48,7.8,24.88,5.01-7.8,12.58-11.84,29.58-3.46,41.79,6.03,8.79,18.08,12.91,28.23,9.66,10.15-3.25,17.56-13.61,17.36-24.27,2.11,7,5.31,14.05,11.13,18.47,5.82,4.42,14.82,5.32,20.18.34,6.12-5.69,4.95-15.59,2.53-23.59,7.22,9.13,19.01,14.44,30.63,13.8,9.25-.51,18.57-4.99,23.39-12.9,4.82-7.91,4.08-19.27-2.8-25.47,9.07-2.54,17.15-8.94,20.99-17.54,3.84-8.6,3.05-19.29-2.64-26.8-1.91-2.53-6.72-6.98-9.19-8.96-6.66-5.36-11.77-7.55-20.08-9.56-8.31-2.01-19.11-1.6-26.4,2.86"/>
  <path class="cls-21" d="m734.11,529.44c-.84-1.71-2.33-3.01-3.95-3.43-1.62-.43-3.34.03-4.56,1.2-1.01.98-1.68,2.62-1.22,4.16-.72.02-1.37-.6-2.06-.92-.61-.28-1.28-.31-1.91-.26-2.28.2-4.59,1.8-4.92,4.42-.2,1.55.36,3.26,1.42,4.34,1.06,1.08,2.57,1.5,3.84,1.05-1.12,2.2-1.63,5.22-.27,7.45.98,1.61,2.85,2.42,4.38,1.9,1.53-.52,2.6-2.33,2.51-4.23.37,1.26.9,2.54,1.82,3.37s2.3,1.04,3.09.18c.9-.98.66-2.76.24-4.2,1.16,1.68,3,2.7,4.77,2.66,1.41-.03,2.81-.78,3.5-2.16s.51-3.42-.58-4.57c1.37-.4,2.57-1.49,3.1-3.01s.35-3.43-.57-4.81c-.31-.46-.69-.86-1.08-1.23-1.05-1-2.23-1.85-3.51-2.26s-2.68-.34-3.77.41"/>
  <path class="cls-35" d="m734.21,528.66c-.68-1.26-1.95-2.18-3.35-2.45s-2.92.12-4.02,1.04c-.92.76-1.55,2.01-1.19,3.15-.63.04-1.18-.41-1.77-.62-.53-.19-1.11-.19-1.67-.13-2,.21-4.06,1.48-4.44,3.46-.22,1.16.22,2.43,1.11,3.21s2.2,1.04,3.33.67c-1.04,1.68-1.58,3.95-.46,5.58.81,1.17,2.42,1.73,3.77,1.29s2.35-1.82,2.32-3.24c.28.94.71,1.88,1.49,2.47s1.98.71,2.7.04c.82-.76.66-2.08.34-3.15.96,1.22,2.54,1.93,4.09,1.84,1.24-.07,2.48-.67,3.13-1.72s.55-2.58-.37-3.4c1.21-.34,2.29-1.2,2.8-2.34s.41-2.58-.35-3.58c-.26-.34-.9-.93-1.23-1.2-.89-.72-1.57-1.01-2.68-1.28s-2.55-.21-3.53.38"/>
  <path class="cls-21" d="m513.25,450.1c-.94-1.92-2.61-3.37-4.42-3.84-1.81-.48-3.74.03-5.1,1.34-1.13,1.09-1.88,2.94-1.36,4.65-.81.03-1.53-.67-2.3-1.02-.69-.31-1.43-.35-2.14-.29-2.55.22-5.13,2.01-5.51,4.95-.22,1.73.4,3.64,1.58,4.85s2.87,1.67,4.29,1.17c-1.25,2.46-1.82,5.84-.31,8.34,1.09,1.8,3.18,2.71,4.9,2.13s2.91-2.6,2.81-4.74c.41,1.41,1.01,2.85,2.03,3.77s2.57,1.16,3.46.21c1.01-1.1.74-3.09.27-4.7,1.3,1.87,3.35,3.02,5.34,2.97,1.58-.04,3.15-.87,3.92-2.42s.57-3.83-.65-5.11c1.53-.45,2.87-1.67,3.47-3.37.6-1.69.39-3.84-.63-5.38-.34-.52-.77-.96-1.21-1.37-1.18-1.12-2.5-2.07-3.93-2.53s-3-.38-4.22.46"/>
  <path class="cls-35" d="m513.36,449.23c-.76-1.41-2.18-2.44-3.75-2.74s-3.27.14-4.5,1.16c-1.03.85-1.74,2.25-1.33,3.52-.71.04-1.32-.46-1.98-.7-.59-.21-1.24-.22-1.86-.15-2.24.24-4.55,1.66-4.96,3.87-.25,1.3.24,2.72,1.24,3.59s2.46,1.17,3.72.75c-1.17,1.88-1.77,4.42-.52,6.25.9,1.31,2.7,1.93,4.22,1.44,1.52-.49,2.63-2.03,2.6-3.63.32,1.05.79,2.1,1.66,2.76s2.22.79,3.02.05c.91-.85.74-2.33.38-3.53,1.08,1.36,2.84,2.16,4.58,2.06,1.38-.08,2.78-.75,3.5-1.93s.61-2.88-.42-3.81c1.36-.38,2.56-1.34,3.14-2.62.57-1.29.46-2.88-.39-4.01-.29-.38-1-1.04-1.37-1.34-1-.8-1.76-1.13-3-1.43s-2.86-.24-3.95.43"/>
  <path class="cls-37" d="m904.35,708.57l-768.9-.03c-40.28-34.47-71.96-81.5-90.57-134.4-13.79-39.25-20.45-82.63-13.03-124,8.66-48.31,36.56-91.12,73.12-118.33,36.56-27.22,81.2-39.35,125.04-37.93-4.8-36.54-9.02-73.81-3.81-110.28,10.86-76.12,66.26-141.67,133.35-157.77,67.09-16.11,141.52,18.26,179.14,82.73,33.72-47.95,85.58-79.22,139.79-84.31,54.2-5.07,109.97,16.11,150.3,57.12,46.47,47.23,70.4,129.84,37.88,190.01,11.6.43,24.83,5.24,37.68,12.11,0,0,158.68-.61,170.95,181.97,12.28,182.58-170.95,243.1-170.95,243.1Z"/>
</svg>