<?xml version="1.0" encoding="UTF-8"?>
<svg id="Layer_1" data-name="Layer 1" xmlns="http://www.w3.org/2000/svg" xmlns:xlink="http://www.w3.org/1999/xlink" viewBox="0 0 1094.22 720">
  <defs>
    <style>
      .cls-1 {
        fill: url(#linear-gradient-12);
      }

      .cls-1, .cls-2, .cls-3, .cls-4, .cls-5, .cls-6, .cls-7, .cls-8, .cls-9, .cls-10, .cls-11, .cls-12, .cls-13, .cls-14, .cls-15, .cls-16, .cls-17, .cls-18, .cls-19, .cls-20, .cls-21, .cls-22, .cls-23, .cls-24, .cls-25, .cls-26, .cls-27, .cls-28, .cls-29, .cls-30, .cls-31, .cls-32, .cls-33, .cls-34, .cls-35, .cls-36, .cls-37 {
        stroke-width: 0px;
      }

      .cls-2 {
        fill: url(#linear-gradient-17);
      }

      .cls-3 {
        fill: url(#linear-gradient-19);
      }

      .cls-4 {
        fill: url(#linear-gradient);
      }

      .cls-5 {
        fill: url(#linear-gradient-21);
      }

      .cls-6 {
        opacity: .38;
      }

      .cls-6, .cls-16 {
        fill: #fff;
      }

      .cls-7 {
        fill: url(#linear-gradient-6);
      }

      .cls-8 {
        fill: url(#linear-gradient-15);
      }

      .cls-9 {
        fill: url(#linear-gradient-11);
      }

      .cls-10 {
        fill: url(#linear-gradient-5);
      }

      .cls-11 {
        fill: #f5f9ff;
      }

      .cls-38 {
        opacity: .11;
      }

      .cls-12 {
        fill: url(#linear-gradient-13);
      }

      .cls-13 {
        fill: url(#linear-gradient-23);
      }

      .cls-14 {
        fill: url(#linear-gradient-16);
      }

      .cls-15 {
        fill: url(#linear-gradient-22);
      }

      .cls-17 {
        fill: #205cc8;
      }

      .cls-18 {
        fill: url(#linear-gradient-20);
      }

      .cls-19 {
        fill: #e8ebf0;
      }

      .cls-20 {
        fill: url(#linear-gradient-14);
      }

      .cls-21 {
        fill: url(#linear-gradient-2);
      }

      .cls-22 {
        fill: #d6dce5;
      }

      .cls-23 {
        fill: #ffd73e;
      }

      .cls-24 {
        fill: #bbd0ef;
      }

      .cls-25 {
        fill: url(#linear-gradient-7);
      }

      .cls-26 {
        fill: url(#linear-gradient-3);
      }

      .cls-27 {
        fill: url(#linear-gradient-9);
      }

      .cls-28 {
        fill: #fc9202;
      }

      .cls-29 {
        fill: #f2f5f9;
        opacity: .28;
      }

      .cls-30 {
        fill: url(#linear-gradient-8);
      }

      .cls-31 {
        fill: url(#linear-gradient-18);
      }

      .cls-32 {
        fill: #9660f3;
      }

      .cls-33 {
        fill: #d9256a;
      }

      .cls-34 {
        fill: url(#linear-gradient-10);
      }

      .cls-35 {
        fill: url(#linear-gradient-4);
      }

      .cls-36 {
        fill: #fcfcfc;
      }

      .cls-37 {
        fill: #ecedef;
      }
    </style>
    <linearGradient id="linear-gradient" x1="1075.03" y1="-232.49" x2="349.67" y2="722.86" gradientUnits="userSpaceOnUse">
      <stop offset=".4" stop-color="#9660f3"/>
      <stop offset=".91" stop-color="#eb2a7d"/>
    </linearGradient>
    <linearGradient id="linear-gradient-2" x1="592.08" y1="-108.97" x2="534.16" y2="533.46" gradientUnits="userSpaceOnUse">
      <stop offset=".13" stop-color="#6d72f5"/>
      <stop offset=".45" stop-color="#a35be3"/>
      <stop offset=".83" stop-color="#c750b9"/>
      <stop offset=".95" stop-color="#e0499e"/>
    </linearGradient>
    <linearGradient id="linear-gradient-3" x1="473.6" y1="347.57" x2="335.37" y2="489.75" xlink:href="#linear-gradient-2"/>
    <linearGradient id="linear-gradient-4" x1="426.8" y1="317.14" x2="406.17" y2="524.26" xlink:href="#linear-gradient-2"/>
    <linearGradient id="linear-gradient-5" x1="436.83" y1="345.68" x2="435.51" y2="522.09" xlink:href="#linear-gradient-2"/>
    <linearGradient id="linear-gradient-6" x1="462.45" y1="410.93" x2="458.94" y2="528.54" xlink:href="#linear-gradient-2"/>
    <linearGradient id="linear-gradient-7" x1="374.3" y1="373.1" x2="493.49" y2="373.1" xlink:href="#linear-gradient-2"/>
    <linearGradient id="linear-gradient-8" x1="515.91" y1="267.98" x2="505.71" y2="331.13" xlink:href="#linear-gradient-2"/>
    <linearGradient id="linear-gradient-9" x1="435.38" y1="249.85" x2="550.35" y2="414.84" xlink:href="#linear-gradient-2"/>
    <linearGradient id="linear-gradient-10" x1="788.59" y1="619.69" x2="674.5" y2="411.69" xlink:href="#linear-gradient"/>
    <linearGradient id="linear-gradient-11" x1="797.66" y1="614.72" x2="683.57" y2="406.72" xlink:href="#linear-gradient"/>
    <linearGradient id="linear-gradient-12" x1="815.82" y1="615.87" x2="713.83" y2="429.93" xlink:href="#linear-gradient"/>
    <linearGradient id="linear-gradient-13" x1="832.49" y1="606.72" x2="730.5" y2="420.79" xlink:href="#linear-gradient"/>
    <linearGradient id="linear-gradient-14" x1="659.2" y1="322.51" x2="688.03" y2="322.51" xlink:href="#linear-gradient"/>
    <linearGradient id="linear-gradient-15" x1="591.83" y1="270.99" x2="582.51" y2="374.35" xlink:href="#linear-gradient"/>
    <linearGradient id="linear-gradient-16" x1="607.57" y1="388.28" x2="631.77" y2="388.28" gradientUnits="userSpaceOnUse">
      <stop offset=".16" stop-color="#c750b9"/>
      <stop offset=".95" stop-color="#e0499e"/>
    </linearGradient>
    <linearGradient id="linear-gradient-17" x1="630.62" x2="652.54" xlink:href="#linear-gradient-16"/>
    <linearGradient id="linear-gradient-18" x1="631.77" y1="362.46" x2="659.94" y2="362.46" xlink:href="#linear-gradient-16"/>
    <linearGradient id="linear-gradient-19" x1="599.66" y1="363.57" x2="633.66" y2="363.57" xlink:href="#linear-gradient-16"/>
    <linearGradient id="linear-gradient-20" x1="629.85" y1="157.59" x2="658.81" y2="157.59" xlink:href="#linear-gradient-16"/>
    <linearGradient id="linear-gradient-21" x1="600.94" y1="157.56" x2="633.11" y2="157.56" xlink:href="#linear-gradient-16"/>
    <linearGradient id="linear-gradient-22" x1="612.45" y1="233.97" x2="647.32" y2="233.97" gradientUnits="userSpaceOnUse">
      <stop offset="0" stop-color="#9660f3"/>
      <stop offset=".91" stop-color="#eb2a7d"/>
    </linearGradient>
    <linearGradient id="linear-gradient-23" x1="613.1" y1="235.62" x2="647.32" y2="235.62" xlink:href="#linear-gradient-2"/>
  </defs>
  <g class="cls-38">
    <path class="cls-4" d="m886.17,289.66c-11.52-6.16-23.39-10.46-33.79-10.85,29.16-53.96,7.7-128.04-33.97-170.39-36.17-36.77-86.18-55.77-134.78-51.22-48.61,4.55-95.11,32.6-125.35,75.59-33.74-57.81-100.48-88.64-160.64-74.19-60.16,14.45-109.84,73.23-119.58,141.48-4.67,32.71-.88,66.13,3.42,98.9-39.32-1.28-79.35,9.6-112.14,34-32.79,24.41-57.79,62.79-65.57,106.12-6.66,37.09-.69,75.99,11.68,111.18,16.69,47.45,45.1,89.61,81.22,120.52l689.49.03v-381.17Z"/>
  </g>
  <path class="cls-21" d="m302.92,525.48c-25.59-21.23-45.71-50.17-57.51-82.72-8.75-24.15-12.96-50.84-8.22-76.28,5.54-29.72,23.28-56.04,46.54-72.76,23.26-16.72,51.64-24.16,79.52-23.26-3.03-22.48-5.7-45.41-2.37-67.85,6.94-46.82,42.2-87.11,84.86-96.99,42.66-9.88,89.95,11.31,113.84,50.98,21.46-29.48,54.45-48.69,88.91-51.79,34.46-3.1,69.9,9.96,95.52,35.21,29.52,29.08,44.69,79.91,23.98,116.91,17.87.67,41.87,17.08,53.58,29.25,31.11,32.31,38.11,70.84,36.54,117.59-1.57,46.75-22.29,92.36-55.48,122.12"/>
  <path class="cls-16" d="m458.88,202.64l2.29,2.14,2.08-1.19c.6.38,1.21.7,1.85.98l.28,2.45,3.01.67,1.22-2.11h-.01c.35,0,.7,0,1.05-.01.35-.01.7-.05,1.05-.1h-.01s1.43,1.98,1.43,1.98l2.92-.97.03-2.47c.6-.33,1.18-.72,1.74-1.16l2.19.98,2.06-2.36-1.16-2.16c.37-.62.68-1.26.94-1.91l2.37-.28.64-3.11-2.05-1.27c0-.36,0-.72-.02-1.07-.02-.36-.05-.73-.1-1.09h0s1.91-1.46,1.91-1.46l-.95-3.03-2.38-.04c-.33-.62-.7-1.23-1.13-1.8l.94-2.27-2.29-2.14-2.08,1.2c-.6-.38-1.22-.7-1.85-.98l-.29-2.45-3.01-.67-1.22,2.12c-.35,0-.7,0-1.04.02-.35.02-.7.05-1.04.09l-1.42-1.98-2.93.98-.03,2.47c-.6.34-1.18.73-1.74,1.17l-2.19-.98-2.06,2.36,1.17,2.16c-.36.62-.68,1.26-.94,1.91l-2.37.29-.64,3.11,2.05,1.27h0c0,.35,0,.71.01,1.08.01.35.05.72.09,1.07l-1.91,1.47.95,3.03,2.39.04c.32.62.7,1.23,1.13,1.8l-.94,2.27Zm4.01-16.96c3.51-4.04,9.54-4.35,13.45-.69,3.91,3.65,4.23,9.89.71,13.92-3.51,4.03-9.54,4.34-13.44.69-3.91-3.65-4.23-9.89-.72-13.92Z"/>
  <path class="cls-16" d="m458.83,202.69c.76.71,1.53,1.43,2.29,2.14.02.02.05.02.08,0,.42-.24.84-.48,1.26-.72.19-.11.49-.37.7-.4.27-.04.68.32.96.46.28.15.79.28.92.53.1.2.07.61.1.83.06.5.12.99.17,1.49,0,.03.02.06.05.06,1,.22,2,.45,3.01.67.03,0,.06,0,.07-.03.41-.71.81-1.41,1.22-2.11.02-.03,0-.07-.03-.09.55.28,1.5.15,2.02-.11-.03.02-.06.06-.03.1.48.66.95,1.32,1.43,1.98.02.02.05.04.07.03.98-.32,1.95-.65,2.92-.97.03,0,.04-.04.04-.07,0-.5.01-1,.02-1.5,0-.22-.07-.63.01-.84.1-.26.6-.45.86-.62.26-.17.63-.58.91-.56.22.01.55.24.74.33.44.2.89.39,1.33.59.03.01.06,0,.08-.01.69-.79,1.37-1.57,2.06-2.36.02-.02.02-.05,0-.08-.24-.44-.47-.87-.71-1.31-.1-.19-.36-.51-.39-.73-.04-.28.31-.71.45-1,.14-.29.27-.82.51-.95.19-.1.59-.07.8-.1.48-.06.96-.11,1.43-.17.03,0,.05-.02.06-.05.21-1.04.43-2.08.64-3.11,0-.03,0-.06-.03-.07-.52-.32-1.03-.64-1.55-.96-.36-.22-.38-.21-.47-.61-.11-.55.14-1.27-.23-1.75.02.03.06.04.09.02.64-.49,1.27-.98,1.91-1.47.02-.02.03-.05.03-.08-.32-1.01-.63-2.02-.95-3.03,0-.03-.04-.04-.06-.05-.48,0-.96-.02-1.45-.03-.21,0-.61.07-.81-.02-.26-.1-.44-.62-.61-.89-.17-.27-.56-.66-.55-.94,0-.22.23-.56.32-.77.19-.46.38-.92.57-1.37.01-.03,0-.06-.01-.08-.76-.71-1.53-1.43-2.29-2.14-.02-.02-.05-.02-.08,0-.42.24-.84.48-1.26.73-.19.11-.49.37-.7.4-.27.04-.69-.32-.96-.47-.28-.15-.79-.28-.92-.53-.1-.2-.07-.61-.1-.83-.06-.5-.12-.99-.17-1.49,0-.03-.02-.06-.05-.06-1-.22-2.01-.45-3.01-.67-.03,0-.06,0-.07.03-.25.43-.49.86-.74,1.28-.11.18-.25.58-.41.72-.22.17-.75.08-1.06.1-.31.02-.83.16-1.06.01-.18-.11-.36-.5-.48-.67-.29-.4-.57-.8-.86-1.2-.02-.02-.05-.04-.07-.03-.98.33-1.95.65-2.93.98-.03,0-.04.04-.04.07,0,.5-.01,1-.02,1.5,0,.22.07.63-.01.83-.1.27-.6.45-.86.63-.26.18-.63.58-.91.56-.21-.01-.55-.24-.74-.33-.44-.2-.89-.4-1.33-.59-.03-.01-.06,0-.08.01-.69.79-1.37,1.57-2.06,2.36-.02.02-.02.05,0,.08.24.44.47.87.71,1.31.1.19.36.51.39.73.04.28-.31.71-.45.99-.14.29-.27.82-.51.95-.19.1-.59.07-.8.1-.48.06-.96.12-1.44.17-.03,0-.05.02-.06.05-.21,1.04-.42,2.08-.64,3.11,0,.03,0,.06.03.07.68.42,1.37.85,2.05,1.27.03.02.07,0,.09-.03-.2.51-.09,1.05-.07,1.59.03.57.04.51-.38.84-.48.37-.96.74-1.44,1.11-.02.02-.03.05-.03.08.32,1.01.63,2.02.95,3.03,0,.03.04.04.06.05.48,0,.97.02,1.45.03.21,0,.61-.07.81.02.25.1.43.62.6.89.17.27.56.66.55.94-.01.22-.23.56-.32.77-.19.46-.38.92-.57,1.37-.03.08.08.14.11.06.25-.61.78-1.42.86-2.07.08-.71-.7-1.41-1.05-2.07-.01-.02-.04-.03-.06-.03-.5,0-2.04.21-2.33-.03-.17-.14-.24-.77-.31-.99-.16-.52-.43-1.09-.51-1.63-.07-.46-.16-.19.16-.54.34-.37.84-.63,1.23-.95.76-.61.29-1.54.3-2.51,0-.06-.1-.09-.12-.03.08-.2-1.84-1.07-1.9-1.38-.08-.44.25-1.21.34-1.65.04-.21.15-1.17.24-1.25.51-.45,1.79.08,2.37-.29.14-.09.98-1.78.96-1.94-.01-.2-.2-.41-.29-.59-.2-.36-.8-1.1-.82-1.51,0-.21.4-.58.62-.83.33-.38.74-1.07,1.16-1.33.37-.23.32-.14.88.11.33.15,1.04.65,1.41.63.34-.02.82-.53,1.12-.73.24-.16.61-.28.74-.53.18-.34.02-1.32.02-1.71,0-.67-.11-.58.43-.81.62-.26,1.28-.43,1.91-.64.62-.21.5-.18.89.37.34.47.67.94,1.01,1.41.01.02.03.03.06.03.49-.06,1.74.12,2.12-.12.23-.15.43-.74.57-.97.13-.23.52-1.08.67-1.12.4-.11,1.29.29,1.69.38.22.05,1.12.15,1.21.25.22.27.16,1.35.2,1.7.02.19,0,.59.1.76.14.21,1.69,1,1.9.99.68-.02,1.54-1.24,2.1-1.14.3.05,2.14,1.8,2.18,2.02.12.69-.99,1.57-.92,2.29.02.23.97,1.72,1.17,1.84.24.15.94.02,1.22.03.51,0,.98-.1,1.2.2.35.47.46,1.46.63,2.02.22.69.35.65-.19,1.07-.18.14-1.42,1.04-1.36,1.12-.04-.05-.13-.03-.12.04.06.52-.11,1.77.13,2.19.08.15.5.32.62.39.27.17,1.3.58,1.42.88.04.09-.18.82-.22.99-.1.51-.12,1.39-.38,1.84-.17.28-.21.2-.68.26-.4.05-1.24-.02-1.59.19-.27.17-.32.49-.48.83-.13.28-.62.9-.6,1.2.03.38.53.98.71,1.31.14.26.42.69.39.85-.06.36-.89,1.02-1.13,1.3-.16.19-.6.89-.84.96-.14.04-1.04-.48-1.27-.59-.22-.1-.64-.39-.88-.39-.4,0-1.39.94-1.79,1.17-.02.01-.03.04-.03.06,0,.63.17,1.6-.03,2.18-.15.46-.84.52-1.42.71-.57.19-1.19.58-1.56.28-.26-.21-1.06-1.76-1.28-1.65.06-.03.06-.14-.02-.13-.7.09-1.39.12-2.1.11-.06,0-.08.1-.03.13-.17-.09-.87,1.56-1.09,1.78-.34.33-.99.01-1.58-.12-.59-.13-1.31-.11-1.49-.56-.24-.62.07-1.6-.25-2.17-.1-.17-1.73-1.05-1.92-1.03-.48.04-1.18.67-1.59.91-.65.38-.63.12-1.22-.44-.5-.47-1-.93-1.5-1.4-.06-.06-.15.04-.09.1Z"/>
  <path class="cls-16" d="m462.93,185.72c2.7-2.99,6.9-4.07,10.61-2.48,3.59,1.53,5.95,5.28,5.88,9.29-.07,4.14-2.77,7.86-6.57,9.1-3.8,1.25-8.02-.19-10.43-3.47-2.75-3.74-2.39-8.96.52-12.44.05-.06-.04-.15-.1-.09-2.59,3.09-3.22,7.5-1.39,11.18,1.89,3.79,6.01,5.94,10.06,5.28,3.87-.63,7.05-3.78,7.84-7.76.81-4.09-1.01-8.38-4.47-10.54-3.94-2.46-8.95-1.57-12.04,1.84-.06.06.04.15.1.09Z"/>
  <path class="cls-16" d="m436,236.21l1.25,1.17,1.14-.65c.33.21.66.38,1.01.53l.16,1.34,1.64.37.67-1.16h0c.19,0,.38,0,.57,0,.19,0,.38-.03.57-.05h0s.78,1.08.78,1.08l1.6-.53.02-1.35c.33-.18.64-.39.95-.63l1.2.53,1.12-1.29-.64-1.18c.2-.34.37-.69.51-1.05l1.29-.15.35-1.7-1.12-.69c0-.19,0-.39-.01-.59,0-.2-.03-.4-.05-.59h0s1.04-.8,1.04-.8l-.52-1.66-1.3-.02c-.18-.34-.38-.67-.62-.99l.51-1.24-1.25-1.17-1.14.65c-.33-.21-.67-.39-1.01-.54l-.16-1.34-1.64-.37-.67,1.16c-.19,0-.38,0-.57,0-.19,0-.38.03-.57.05l-.78-1.08-1.6.53-.02,1.35c-.33.19-.64.4-.95.64l-1.2-.53-1.13,1.29.64,1.18c-.2.34-.37.69-.51,1.04l-1.29.16-.35,1.7,1.12.69h0c0,.19,0,.39,0,.59,0,.19.03.39.05.58l-1.04.8.52,1.66,1.3.02c.18.34.38.67.62.98l-.51,1.24Zm2.19-9.27c1.92-2.21,5.21-2.37,7.34-.38,2.14,2,2.31,5.4.39,7.61-1.92,2.2-5.21,2.37-7.34.38-2.14-2-2.31-5.4-.39-7.61Z"/>
  <path class="cls-16" d="m435.97,236.24c.42.39.83.78,1.25,1.17.01.01.03.01.04,0,.23-.13.46-.26.69-.4.1-.06.27-.2.38-.22.15-.02.37.17.53.25.15.08.43.15.5.29.05.11.04.33.05.45.03.27.06.54.09.81,0,.02.01.03.03.03.55.12,1.1.24,1.64.37.02,0,.03,0,.04-.02.22-.39.44-.77.67-1.16,0-.02,0-.04-.02-.05.3.16.82.08,1.11-.06-.02,0-.03.03-.02.05l.78,1.08s.03.02.04.01c.53-.18,1.07-.35,1.6-.53.02,0,.02-.02.02-.04,0-.27,0-.55.01-.82,0-.12-.04-.34,0-.46.05-.14.33-.24.47-.34.14-.1.35-.31.5-.31.12,0,.3.13.41.18l.73.32s.03,0,.04,0c.37-.43.75-.86,1.12-1.29.01-.01.01-.03,0-.04-.13-.24-.26-.48-.39-.71-.06-.11-.2-.28-.21-.4-.02-.15.17-.39.24-.54.08-.16.15-.45.28-.52.1-.06.32-.04.44-.05.26-.03.52-.06.78-.09.02,0,.03-.01.03-.03.12-.57.23-1.13.35-1.7,0-.02,0-.03-.02-.04-.28-.17-.56-.35-.84-.52-.2-.12-.21-.11-.25-.33-.06-.3.08-.69-.13-.96.01.01.03.02.05.01.35-.27.69-.54,1.04-.8.01,0,.02-.03.01-.04-.17-.55-.35-1.1-.52-1.66,0-.02-.02-.02-.04-.02-.26,0-.53,0-.79-.01-.12,0-.33.04-.44,0-.14-.06-.24-.34-.33-.49-.09-.15-.31-.36-.3-.52,0-.12.13-.31.17-.42.1-.25.21-.5.31-.75,0-.01,0-.03,0-.04-.42-.39-.83-.78-1.25-1.17-.01-.01-.03-.01-.04,0-.23.13-.46.26-.69.4-.1.06-.27.2-.38.22-.15.02-.37-.17-.53-.25-.15-.08-.43-.15-.5-.29-.05-.11-.04-.33-.05-.45-.03-.27-.06-.54-.1-.81,0-.02-.01-.03-.03-.03-.55-.12-1.1-.24-1.64-.37-.02,0-.03,0-.04.02-.13.23-.27.47-.4.7-.06.1-.13.32-.22.39-.12.09-.41.05-.58.05-.17,0-.46.09-.58,0-.1-.06-.19-.27-.26-.37-.16-.22-.31-.44-.47-.66,0-.01-.02-.02-.04-.01-.53.18-1.07.36-1.6.53-.02,0-.02.02-.02.04,0,.27,0,.54-.01.82,0,.12.04.34,0,.46-.05.14-.33.25-.47.34-.14.1-.35.32-.5.31-.12,0-.3-.13-.4-.18-.24-.11-.48-.22-.73-.32-.01,0-.03,0-.04,0-.38.43-.75.86-1.13,1.29-.01.01-.01.03,0,.04.13.24.26.48.39.72.06.11.2.28.22.4.02.15-.17.39-.24.54-.08.16-.15.45-.28.52-.1.06-.32.04-.44.05-.26.03-.52.06-.78.09-.02,0-.03.01-.03.03-.12.57-.23,1.13-.35,1.7,0,.02,0,.03.02.04.37.23.75.46,1.12.69.02,0,.04,0,.05-.02-.11.28-.05.57-.04.87.02.31.02.28-.21.46-.26.2-.52.4-.79.61-.01,0-.02.03-.01.04.17.55.35,1.1.52,1.66,0,.02.02.02.04.02.26,0,.53,0,.79.01.12,0,.33-.04.44,0,.14.06.24.34.33.49.09.15.31.36.3.52,0,.12-.13.31-.17.42-.1.25-.21.5-.31.75-.02.04.04.08.06.03.14-.33.43-.77.47-1.13.04-.39-.38-.77-.57-1.13,0-.01-.02-.02-.03-.02-.27,0-1.11.12-1.27-.01-.09-.08-.13-.42-.17-.54-.09-.28-.24-.6-.28-.89-.04-.25-.09-.11.09-.29.18-.2.46-.35.67-.52.41-.33.16-.84.16-1.37,0-.03-.05-.05-.07-.01.04-.11-1.01-.58-1.04-.75-.04-.24.13-.66.18-.9.02-.11.08-.64.13-.68.28-.24.98.04,1.29-.16.08-.05.53-.97.53-1.06,0-.11-.11-.23-.16-.32-.11-.2-.44-.6-.45-.83,0-.11.22-.32.34-.45.18-.21.4-.59.63-.73.2-.12.18-.07.48.06.18.08.57.35.77.34.19,0,.45-.29.61-.4.13-.09.33-.15.4-.29.1-.19,0-.72.01-.93,0-.37-.06-.32.23-.44.34-.14.7-.23,1.05-.35.34-.11.27-.1.49.2.18.26.37.51.55.77,0,0,.02.02.03.02.27-.03.95.07,1.16-.07.12-.08.24-.41.31-.53.07-.13.28-.59.36-.61.22-.06.7.16.92.21.12.03.61.08.66.14.12.15.09.74.11.93.01.11,0,.32.06.42.08.11.92.55,1.04.54.37,0,.84-.68,1.15-.62.16.03,1.17.99,1.19,1.1.07.38-.54.86-.5,1.25.01.13.53.94.64,1,.13.08.51.01.66.01.28,0,.53-.06.65.11.19.26.25.8.35,1.1.12.38.19.36-.11.58-.1.08-.78.57-.74.61-.02-.03-.07-.02-.06.02.03.29-.06.97.07,1.2.05.08.27.17.34.21.15.09.71.32.78.48.02.05-.1.45-.12.54-.06.28-.06.76-.21,1-.09.15-.11.11-.37.14-.22.03-.68-.01-.87.1-.15.09-.17.27-.26.45-.07.15-.34.49-.33.66.02.21.29.54.39.71.08.14.23.38.21.46-.03.2-.49.56-.62.71-.09.1-.33.49-.46.53-.08.02-.57-.26-.69-.32-.12-.05-.35-.21-.48-.21-.22,0-.76.52-.98.64-.01,0-.02.02-.02.03,0,.34.09.87-.02,1.19-.08.25-.46.28-.78.39-.31.1-.65.32-.85.15-.14-.12-.58-.96-.7-.9.03-.02.03-.08-.01-.07-.38.05-.76.07-1.15.06-.04,0-.04.05-.01.07-.09-.05-.48.85-.6.97-.18.18-.54,0-.86-.06-.32-.07-.71-.06-.81-.31-.13-.34.04-.87-.14-1.19-.05-.1-.94-.57-1.05-.56-.26.02-.64.37-.87.5-.36.2-.34.06-.67-.24-.27-.26-.55-.51-.82-.77-.03-.03-.08.02-.05.05Z"/>
  <path class="cls-16" d="m438.21,226.97c1.48-1.63,3.77-2.22,5.8-1.36,1.96.84,3.25,2.89,3.21,5.07-.04,2.26-1.51,4.29-3.59,4.97-2.08.68-4.38-.1-5.7-1.9-1.5-2.04-1.31-4.89.28-6.79.03-.04-.02-.08-.05-.05-1.41,1.69-1.76,4.1-.76,6.11,1.03,2.07,3.28,3.24,5.5,2.88,2.12-.35,3.85-2.07,4.28-4.24.44-2.24-.55-4.58-2.44-5.76-2.15-1.34-4.89-.86-6.58,1.01-.03.03.02.08.05.05Z"/>
  <path class="cls-16" d="m475.09,234.88l1.85,1.73,1.68-.96c.48.31.98.57,1.49.79l.23,1.98,2.43.54.98-1.71h0c.28,0,.57,0,.85-.01.28-.01.57-.04.85-.08h0s1.15,1.6,1.15,1.6l2.36-.79.03-2c.49-.27.95-.58,1.4-.94l1.77.79,1.66-1.91-.94-1.74c.3-.5.55-1.01.76-1.55l1.91-.23.52-2.51-1.65-1.02c0-.29,0-.58-.02-.87-.01-.29-.04-.59-.08-.88h0s1.54-1.18,1.54-1.18l-.77-2.45-1.92-.04c-.27-.5-.57-.99-.91-1.46l.76-1.83-1.85-1.73-1.68.97c-.49-.31-.98-.57-1.49-.79l-.23-1.98-2.43-.54-.98,1.71c-.28,0-.56,0-.84.01-.28.01-.56.04-.84.08l-1.15-1.6-2.36.79-.03,1.99c-.49.28-.95.59-1.4.94l-1.77-.79-1.66,1.91.94,1.74c-.29.5-.55,1.01-.76,1.54l-1.91.23-.51,2.51,1.65,1.02h0c0,.28,0,.58.01.87.01.29.04.58.07.86l-1.54,1.19.77,2.45,1.93.04c.26.5.56.99.91,1.46l-.76,1.83Zm3.24-13.7c2.84-3.26,7.7-3.51,10.86-.56,3.16,2.95,3.42,7.98.58,11.24-2.84,3.26-7.7,3.51-10.85.56-3.16-2.95-3.42-7.99-.58-11.24Z"/>
  <path class="cls-16" d="m475.05,234.92c.62.58,1.23,1.15,1.85,1.73.02.02.04.02.06,0,.34-.2.68-.39,1.02-.59.15-.09.4-.3.57-.33.22-.03.55.26.78.37.22.12.64.22.74.43.08.16.06.49.08.67.05.4.09.8.14,1.2,0,.02.02.04.04.05.81.18,1.62.36,2.43.54.02,0,.05,0,.06-.03.33-.57.66-1.14.99-1.71.01-.02,0-.06-.02-.07.45.23,1.21.12,1.63-.09-.03.01-.05.05-.03.08l1.15,1.6s.04.03.06.02c.79-.26,1.57-.52,2.36-.79.02,0,.04-.03.04-.05,0-.4.01-.81.02-1.21,0-.18-.05-.51,0-.68.08-.21.48-.36.69-.5.21-.14.51-.47.73-.45.17,0,.44.2.6.27l1.07.48s.05,0,.06-.01c.55-.64,1.11-1.27,1.66-1.91.02-.02.02-.04,0-.07-.19-.35-.38-.7-.57-1.06-.08-.16-.29-.41-.32-.59-.03-.23.25-.57.36-.8.11-.23.22-.66.41-.77.15-.08.48-.06.65-.08.39-.05.77-.09,1.16-.14.02,0,.04-.02.05-.04.17-.84.34-1.68.52-2.51,0-.02,0-.05-.03-.06-.42-.26-.83-.52-1.25-.77-.29-.18-.31-.17-.38-.49-.09-.45.12-1.03-.19-1.41.02.02.05.03.07.02.51-.4,1.03-.79,1.54-1.19.02-.01.03-.04.02-.06-.26-.82-.51-1.63-.77-2.45,0-.02-.03-.04-.05-.04-.39,0-.78-.01-1.17-.02-.17,0-.49.05-.65-.01-.21-.08-.35-.5-.49-.72-.14-.22-.45-.53-.44-.76,0-.18.19-.45.26-.62.15-.37.31-.74.46-1.11,0-.02,0-.05-.01-.06-.62-.58-1.23-1.15-1.85-1.73-.02-.02-.04-.02-.06,0-.34.2-.68.39-1.02.59-.15.09-.4.3-.57.33-.22.03-.55-.26-.78-.38-.22-.12-.64-.22-.74-.43-.08-.16-.06-.49-.08-.67-.05-.4-.09-.8-.14-1.2,0-.02-.02-.04-.04-.05-.81-.18-1.62-.36-2.43-.54-.02,0-.05,0-.06.03-.2.35-.4.69-.6,1.04-.09.15-.2.47-.33.58-.18.14-.61.07-.85.08-.25.01-.67.13-.86.01-.14-.09-.29-.4-.39-.54-.23-.32-.46-.65-.7-.97-.01-.02-.04-.03-.06-.02-.79.26-1.58.52-2.36.79-.02,0-.03.03-.04.05,0,.4-.01.8-.02,1.21,0,.18.05.51,0,.67-.08.21-.48.37-.69.51-.21.14-.51.47-.73.45-.17,0-.44-.2-.6-.27-.36-.16-.72-.32-1.07-.48-.02,0-.05,0-.06.01-.55.64-1.11,1.27-1.66,1.91-.02.02-.02.04,0,.07.19.35.38.71.57,1.06.08.16.29.41.32.59.03.23-.25.57-.36.8-.11.23-.21.66-.41.77-.15.08-.48.06-.65.08-.39.05-.77.09-1.16.14-.02,0-.04.02-.05.04-.17.84-.34,1.68-.51,2.51,0,.02,0,.05.03.06.55.34,1.1.68,1.65,1.02.02.01.06,0,.07-.02-.16.41-.07.84-.05,1.28.02.46.03.41-.31.68-.39.3-.77.6-1.16.9-.02.01-.03.04-.02.06.26.82.51,1.63.77,2.45,0,.02.03.04.05.04.39,0,.78.01,1.17.02.17,0,.49-.05.65.01.21.08.35.5.48.72.14.22.45.53.44.76,0,.18-.19.45-.26.62-.15.37-.31.74-.46,1.11-.03.06.07.11.09.05.2-.49.63-1.15.69-1.67.06-.57-.56-1.14-.85-1.67,0-.02-.03-.02-.05-.02-.4,0-1.65.17-1.88-.02-.14-.11-.2-.62-.25-.8-.13-.42-.35-.88-.41-1.32-.06-.37-.13-.16.13-.44.27-.3.67-.51.99-.77.61-.49.23-1.25.24-2.03,0-.05-.08-.07-.1-.02.06-.16-1.49-.86-1.53-1.11-.06-.36.2-.98.27-1.33.03-.17.12-.94.19-1.01.41-.36,1.44.07,1.91-.24.11-.07.79-1.44.78-1.57-.01-.16-.16-.33-.24-.47-.16-.29-.64-.89-.66-1.22,0-.17.32-.47.5-.67.27-.31.6-.86.94-1.08.3-.18.26-.11.71.09.27.12.84.52,1.14.51.28-.01.66-.43.91-.59.2-.13.49-.23.6-.43.15-.27.01-1.07.02-1.38,0-.54-.09-.47.34-.65.5-.21,1.03-.34,1.55-.51.5-.17.4-.15.72.3.27.38.54.76.81,1.13.01.01.03.03.05.02.39-.05,1.4.1,1.71-.1.18-.12.35-.6.46-.78.11-.19.42-.87.54-.91.32-.09,1.04.23,1.36.3.18.04.91.12.98.21.18.22.13,1.09.16,1.37.02.16,0,.48.08.61.11.17,1.36.81,1.54.8.55-.01,1.25-1,1.7-.92.24.04,1.73,1.46,1.76,1.63.1.56-.8,1.27-.74,1.85.02.19.79,1.39.94,1.48.2.12.76.02.98.02.41,0,.79-.08.97.16.28.38.37,1.18.51,1.63.18.56.28.53-.16.86-.15.11-1.15.84-1.1.9-.03-.04-.1-.03-.1.03.05.42-.09,1.43.1,1.77.07.12.4.25.5.32.22.14,1.05.47,1.15.71.03.07-.15.66-.18.8-.08.41-.09,1.12-.3,1.48-.13.23-.17.17-.55.21-.33.04-1-.02-1.29.15-.22.13-.26.4-.38.67-.11.23-.5.73-.48.97.02.3.43.79.57,1.06.11.21.34.56.32.69-.05.29-.72.83-.91,1.05-.13.15-.49.72-.68.78-.12.04-.84-.39-1.03-.47-.18-.08-.52-.32-.71-.31-.33,0-1.12.76-1.44.94-.02,0-.02.03-.02.05,0,.51.14,1.29-.02,1.76-.13.37-.67.42-1.15.58-.46.15-.96.47-1.26.23-.21-.17-.86-1.42-1.04-1.33.05-.02.04-.11-.02-.1-.56.07-1.12.1-1.69.09-.05,0-.07.08-.02.1-.14-.07-.7,1.26-.88,1.44-.27.27-.8,0-1.27-.1-.48-.11-1.06-.09-1.2-.45-.2-.5.06-1.29-.2-1.75-.08-.14-1.39-.84-1.55-.83-.38.03-.95.54-1.29.74-.53.3-.51.09-.99-.35-.4-.38-.81-.75-1.21-1.13-.05-.05-.12.03-.07.08Z"/>
  <path class="cls-16" d="m478.36,221.22c2.18-2.41,5.57-3.28,8.57-2,2.9,1.24,4.8,4.27,4.75,7.5-.06,3.34-2.24,6.34-5.31,7.35-3.07,1.01-6.48-.15-8.42-2.8-2.22-3.02-1.93-7.23.42-10.04.04-.05-.03-.12-.08-.07-2.09,2.49-2.6,6.05-1.12,9.03,1.52,3.06,4.85,4.79,8.12,4.26,3.13-.51,5.69-3.05,6.33-6.27.66-3.3-.81-6.77-3.61-8.51-3.18-1.98-7.23-1.27-9.72,1.49-.05.05.03.12.08.07Z"/>
  <rect class="cls-17" x="355.1" y="263.07" width="424.03" height="270.68" rx="5.3" ry="5.3"/>
  <rect class="cls-19" x="355.8" y="268.48" width="406.79" height="255.76" rx="5.3" ry="5.3"/>
  <polygon class="cls-6" points="520.79 268.48 381.9 524.24 515.48 524.24 720.47 268.48 520.79 268.48"/>
  <path class="cls-17" d="m302.05,524.24h521.22c5.07,0,8.14,5.6,5.41,9.87l-.79,1.24c-1.18,1.84-3.22,2.96-5.41,2.96H302.96c-2.03,0-3.95-.96-5.16-2.6l-.92-1.24c-3.13-4.24-.11-10.23,5.16-10.23Z"/>
  <rect class="cls-26" x="381.9" y="347.57" width="11.63" height="176.67"/>
  <rect class="cls-35" x="406.04" y="410.22" width="11.63" height="114.02"/>
  <rect class="cls-10" x="430.17" y="392.18" width="11.63" height="132.06"/>
  <rect class="cls-7" x="454.31" y="453.63" width="11.63" height="70.61"/>
  <path class="cls-25" d="m493.3,427.92c-1.89-2.38-3.78-4.76-5.67-7.13-4.49-5.66-8.99-11.31-13.48-16.97-5.48-6.89-10.95-13.79-16.43-20.68-4.72-5.94-9.43-11.87-14.15-17.81-1.56-1.96-3.12-3.93-4.68-5.89-.72-.91-1.4-1.94-2.21-2.78-.04-.04-.07-.08-.1-.12-.28-.35-.89-.29-1.17,0-4.01,4.18-8.03,8.35-12.04,12.53-.38.39-.75.78-1.13,1.17-4.68-5.28-9.36-10.57-14.05-15.85-7.77-8.77-15.54-17.53-23.31-26.3-1.76-1.99-3.53-3.98-5.29-5.97l2.32-2.14-7.6-3.14,1.9,8.41,2.16-2c4.86,5.48,9.71,10.96,14.57,16.44,7.77,8.77,15.54,17.53,23.31,26.3l5.38,6.07c.29.33.88.31,1.17,0,4.01-4.18,8.03-8.35,12.04-12.53.37-.38.73-.76,1.1-1.14,1.71,2.16,3.43,4.31,5.14,6.47,4.49,5.66,8.99,11.31,13.48,16.97,5.48,6.89,10.95,13.79,16.43,20.68,4.72,5.94,9.43,11.87,14.15,17.81,1.56,1.96,3.12,3.93,4.68,5.89.72.91,1.4,1.94,2.21,2.78.04.04.07.08.1.12.66.84,1.83-.35,1.17-1.17Z"/>
  <path class="cls-30" d="m494.53,295.4v30.56h28.98c.03-.51.04-1.02.04-1.54,0-16.03-12.99-29.02-29.02-29.02Z"/>
  <path class="cls-27" d="m492.45,327.93v-30.56c-16.03,0-29.02,12.99-29.02,29.02,0,.63.03,1.26.07,1.88.97,15.15,13.56,27.15,28.96,27.15s28.18-12.17,28.98-27.49h-28.98Z"/>
  <rect class="cls-34" x="676.11" y="386.19" width="12.29" height="79.28"/>
  <rect class="cls-9" x="696.21" y="416.43" width="12.29" height="49.05"/>
  <rect class="cls-1" x="734.32" y="467.35" width="10.98" height="19.92"/>
  <rect class="cls-12" x="752.28" y="453.75" width="10.98" height="33.51"/>
  <path class="cls-20" d="m659.2,271.69s16.73,12.98,23.77,35.02c7.04,22.05,4.69,66.61,4.69,66.61l-28.46-26.58"/>
  <path class="cls-8" d="m599.66,271.69s-16.73,12.98-23.77,35.02c-7.04,22.05-4.69,66.61-4.69,66.61l28.46-26.58"/>
  <path class="cls-14" d="m607.57,380.92v14.72h23.06c.33-3.78.73-8.71,1.15-14.72h-24.2Z"/>
  <path class="cls-2" d="m630.62,395.64h21.92v-14.72h-20.77c-.42,6.01-.82,10.94-1.15,14.72Z"/>
  <path class="cls-31" d="m659.76,344.01c-.32,2.27-.51,3.5-.51,3.5h-25.62c-.17,3.92-.35,7.66-.53,11.21-.44,8.51-.9,15.94-1.33,22.2h28.17v-36.92h-.18Z"/>
  <path class="cls-3" d="m599.86,347.51s-.07-.45-.2-1.3v34.71h32.11c.44-6.25.91-13.68,1.35-22.2.19-3.55.37-7.29.54-11.21h-33.81Z"/>
  <path class="cls-18" d="m658.81,182.36c-5.49-22.3-14.56-41.11-28.96-51.6,1.39,18.6,2.46,36.51,3.26,53.66,8.19.04,17-.49,25.7-2.06Z"/>
  <path class="cls-5" d="m629.85,130.76s-.06-.05-.09-.07c-14.27,10.34-23.29,28.83-28.82,50.79,6.9,1.21,18.7,2.86,32.17,2.93-.81-17.15-1.88-35.06-3.26-53.66Z"/>
  <path class="cls-32" d="m658.04,345.68l13.01,12.13s10.52-34.85-5.27-74.86"/>
  <path class="cls-32" d="m600.8,345.68l-13.01,12.13s-10.52-34.85,5.27-74.86"/>
  <path class="cls-11" d="m658.81,182.36c-8.7,1.57-17.51,2.11-25.7,2.06,3.12,66.37,2.31,121.23.7,159.59-.05,1.19-.1,2.35-.15,3.5h26.01s.2-1.23.52-3.5c2.57-18.07,13.26-102.26-1.37-161.65Z"/>
  <path class="cls-37" d="m633.11,184.42c-13.47-.07-25.27-1.72-32.17-2.93-15.7,62.41-3.04,152.92-1.28,164.72.13.84.2,1.3.2,1.3h33.81c.05-1.15.1-2.32.15-3.5,1.61-38.36,2.42-93.21-.7-159.59Z"/>
  <circle class="cls-33" cx="629.89" cy="233.97" r="22.02"/>
  <circle class="cls-15" cx="629.89" cy="233.97" r="17.43"/>
  <path class="cls-13" d="m640.07,219.84c.41,1.48.65,3.04.65,4.65,0,9.63-7.81,17.43-17.43,17.43-3.81,0-7.32-1.23-10.19-3.3,2.04,7.37,8.77,12.79,16.79,12.79,9.63,0,17.43-7.81,17.43-17.43,0-5.82-2.86-10.96-7.25-14.13Z"/>
  <circle class="cls-29" cx="624.45" cy="228.73" r="6.48"/>
  <path class="cls-28" d="m630.49,398.92s-20.63,19.38,0,53.82c0,0,19.73-31.04,0-53.82Z"/>
  <path class="cls-23" d="m630.77,398.92s-15.63,14.67,0,40.76c0,0,14.95-23.51,0-40.76Z"/>
  <path class="cls-24" d="m648.8,474.99c-5.64-11.5-15.64-20.19-26.52-23.04-10.88-2.85-22.42.19-30.59,8.07-6.81,6.56-11.3,17.61-8.19,27.92-4.84.16-9.17-4.04-13.81-6.14-4.12-1.87-8.56-2.08-12.84-1.71-15.29,1.31-30.77,12.05-33.04,29.66-1.33,10.37,2.41,21.86,9.5,29.12,7.08,7.26,17.24,10.04,25.75,7.03-7.5,14.77-10.94,35.01-1.84,49.99,6.55,10.79,19.09,16.23,29.38,12.75s17.47-15.61,16.83-28.4c2.46,8.48,6.03,17.07,12.19,22.62,6.16,5.54,15.44,6.99,20.73,1.23,6.05-6.57,4.44-18.51,1.63-28.2,7.79,11.25,20.11,18.1,32.01,17.82,9.48-.23,18.87-5.22,23.49-14.52s3.4-22.95-3.92-30.67c9.21-2.68,17.24-10.03,20.83-20.19,3.59-10.16,2.34-23.02-3.81-32.26-2.07-3.11-4.61-5.76-7.23-8.25-7.06-6.7-14.97-12.43-23.58-15.18-8.61-2.75-18.02-2.27-25.32,2.78"/>
  <path class="cls-36" d="m649.47,469.76c-4.58-8.44-13.07-14.64-22.5-16.45-9.43-1.81-19.61.81-26.99,6.95-6.15,5.11-10.41,13.52-7.99,21.14-4.24.26-7.9-2.75-11.9-4.18-3.55-1.27-7.43-1.3-11.18-.9-13.41,1.44-27.27,9.94-29.78,23.19-1.48,7.8,1.46,16.29,7.43,21.51,5.98,5.22,14.78,7,22.31,4.49-7,11.28-10.62,26.53-3.11,37.47,5.41,7.88,16.21,11.58,25.32,8.66,9.1-2.92,15.75-12.2,15.57-21.76,1.89,6.28,4.76,12.6,9.98,16.56,5.22,3.97,13.29,4.77,18.1.3,5.48-5.1,4.44-13.98,2.27-21.15,6.47,8.18,17.05,12.95,27.47,12.38,8.29-.45,16.66-4.47,20.98-11.57,4.32-7.09,3.66-17.28-2.51-22.84,8.13-2.28,15.38-8.02,18.82-15.73,3.44-7.71,2.73-17.3-2.37-24.03-1.72-2.27-6.03-6.26-8.24-8.04-5.97-4.8-10.55-6.77-18-8.57-7.45-1.8-17.13-1.43-23.67,2.57"/>
  <path class="cls-22" d="m755.52,506.08c-.75-1.54-2.09-2.7-3.54-3.08s-3,.03-4.09,1.08c-.91.88-1.51,2.35-1.09,3.73-.65.02-1.23-.54-1.85-.82-.55-.25-1.14-.28-1.72-.23-2.04.18-4.11,1.61-4.41,3.96-.18,1.39.32,2.92,1.27,3.89.95.97,2.3,1.34,3.44.94-1,1.97-1.46,4.68-.25,6.68.88,1.44,2.55,2.17,3.93,1.7s2.34-2.09,2.25-3.8c.33,1.13.81,2.28,1.63,3.02s2.06.93,2.77.16c.81-.88.59-2.47.22-3.77,1.04,1.5,2.69,2.42,4.28,2.38,1.27-.03,2.52-.7,3.14-1.94s.45-3.07-.52-4.1c1.23-.36,2.3-1.34,2.78-2.7s.31-3.08-.51-4.31c-.28-.42-.62-.77-.97-1.1-.94-.9-2-1.66-3.15-2.03s-2.41-.3-3.38.37"/>
  <path class="cls-36" d="m755.61,505.38c-.61-1.13-1.75-1.96-3.01-2.2s-2.62.11-3.61.93c-.82.68-1.39,1.81-1.07,2.83-.57.03-1.06-.37-1.59-.56-.47-.17-.99-.17-1.49-.12-1.79.19-3.64,1.33-3.98,3.1-.2,1.04.19,2.18.99,2.87s1.97.93,2.98.6c-.94,1.51-1.42,3.55-.42,5.01.72,1.05,2.17,1.55,3.38,1.16s2.1-1.63,2.08-2.91c.25.84.64,1.68,1.33,2.21s1.78.64,2.42.04c.73-.68.59-1.87.3-2.83.87,1.09,2.28,1.73,3.67,1.65,1.11-.06,2.23-.6,2.8-1.55s.49-2.31-.34-3.05c1.09-.3,2.06-1.07,2.52-2.1s.37-2.31-.32-3.21c-.23-.3-.81-.84-1.1-1.07-.8-.64-1.41-.9-2.41-1.15s-2.29-.19-3.16.34"/>
  <path class="cls-22" d="m557.48,434.93c-.84-1.72-2.34-3.02-3.96-3.44-1.63-.43-3.35.03-4.57,1.21-1.02.98-1.69,2.63-1.22,4.17-.72.02-1.37-.6-2.07-.92-.62-.28-1.28-.31-1.92-.26-2.29.2-4.6,1.8-4.94,4.43-.2,1.55.36,3.27,1.42,4.35s2.58,1.5,3.85,1.05c-1.12,2.21-1.64,5.23-.28,7.47.98,1.61,2.85,2.43,4.39,1.91s2.61-2.33,2.52-4.25c.37,1.27.9,2.55,1.82,3.38s2.31,1.04,3.1.18c.9-.98.66-2.77.24-4.22,1.16,1.68,3.01,2.71,4.79,2.66,1.42-.03,2.82-.78,3.51-2.17s.51-3.43-.59-4.59c1.38-.4,2.58-1.5,3.11-3.02.54-1.52.35-3.44-.57-4.82-.31-.47-.69-.86-1.08-1.23-1.06-1-2.24-1.86-3.53-2.27s-2.69-.34-3.79.41"/>
  <path class="cls-36" d="m557.58,434.15c-.69-1.26-1.95-2.19-3.36-2.46s-2.93.12-4.04,1.04c-.92.76-1.56,2.02-1.2,3.16-.63.04-1.18-.41-1.78-.63-.53-.19-1.11-.19-1.67-.13-2,.22-4.08,1.49-4.45,3.47-.22,1.17.22,2.43,1.11,3.22s2.21,1.05,3.34.67c-1.05,1.69-1.59,3.97-.46,5.6.81,1.18,2.42,1.73,3.78,1.3s2.35-1.82,2.33-3.25c.28.94.71,1.88,1.49,2.48s1.99.71,2.71.05c.82-.76.66-2.09.34-3.16.97,1.22,2.55,1.94,4.11,1.85,1.24-.07,2.49-.67,3.14-1.73s.55-2.58-.38-3.41c1.22-.34,2.3-1.2,2.81-2.35.51-1.15.41-2.59-.35-3.59-.26-.34-.9-.94-1.23-1.2-.89-.72-1.58-1.01-2.69-1.28-1.11-.27-2.56-.21-3.54.38"/>
</svg>