<?xml version="1.0" encoding="UTF-8"?>
<svg id="Layer_1" data-name="Layer 1" xmlns="http://www.w3.org/2000/svg" xmlns:xlink="http://www.w3.org/1999/xlink" viewBox="0 0 1919 1077">
  <defs>
    <style>
      .cls-1 {
        fill: #fdb;
      }

      .cls-1, .cls-2, .cls-3, .cls-4, .cls-5, .cls-6, .cls-7, .cls-8, .cls-9, .cls-10 {
        stroke-width: 0px;
      }

      .cls-2 {
        fill: url(#linear-gradient);
      }

      .cls-3 {
        fill: #fcb87a;
      }

      .cls-4 {
        fill: #842d06;
      }

      .cls-5 {
        fill: #f75c06;
      }

      .cls-6 {
        fill: #fff;
      }

      .cls-7 {
        fill: #c44405;
      }

      .cls-8 {
        fill: #f49d56;
      }

      .cls-9 {
        fill: url(#linear-gradient-2);
      }

      .cls-10 {
        fill: #ffd19f;
      }
    </style>
    <linearGradient id="linear-gradient" x1="719.54" y1="260.97" x2="1090.39" y2="260.97" gradientUnits="userSpaceOnUse">
      <stop offset=".13" stop-color="#6d72f5"/>
      <stop offset=".45" stop-color="#a35be3"/>
      <stop offset=".83" stop-color="#c750b9"/>
      <stop offset=".95" stop-color="#e0499e"/>
    </linearGradient>
    <linearGradient id="linear-gradient-2" x1="743.55" y1="431.1" x2="1072.61" y2="431.1" xlink:href="#linear-gradient"/>
  </defs>
  <g>
    <path class="cls-1" d="m879.99,378.2c-8.24.23-16.54-.03-24.79-.03-11.35,0-19.57-6.3-17.29-12.74h41.81c13.03.72,17.81,12.3.27,12.77Z"/>
    <path class="cls-3" d="m743.55,655.26c56.2-59.44,215.3,34.02,215.3,34.02l87.77.75s-28.44,116.37-159.79,114.66c-20.68,17.1-51.31,48.18-51.31,48.18l-159.44-57.07,59.73-69.03,7.73-71.5Z"/>
    <g>
      <path class="cls-7" d="m908.08,398.39v392.39c-38.06.2-76.11-12.9-76.11-39.96v-352.42h76.11Z"/>
      <path class="cls-5" d="m984.22,398.39v352.42c0,26.22-38.06,39.75-76.14,39.96v-392.39h76.14Z"/>
    </g>
    <rect class="cls-4" x="831.97" y="502.48" width="152.26" height="26.25"/>
    <path class="cls-2" d="m741.73,221.24c22.16,9.25,33.56,22.41,36.04,41.81,14.39-12.39,34.03-25.73,28.25-43.3-4.74-14.41-40.23-23.27-21.43-40.2,10.84,28.12,123.57,6.69,80.09,74.93,13.76,2.65,61.98-11.53,17.35-65.71-24.53-29.78,18.82-49.49,50.76-65.22-50.76,65.22,111.4,54.59,53.5,137.15,30.19-9.07,50.3-26.94,50.43-48.57-.13,21.23,53.08,31.73,53.65,69.62,2.11,139.18-237.71,130-318.5,93.37-107.48-48.75-13.33-123.91-30.14-153.87Z"/>
    <path class="cls-6" d="m823.01,286.3c11.13,4.44,16.84,10.75,18.09,20.06,7.23-5.95,17.09-12.35,14.18-20.78-2.38-6.91-20.2-11.17-10.76-19.29,5.44,13.5,62.04,3.21,40.21,35.96,6.91,1.27,31.11-5.54,8.71-31.53-12.31-14.29,9.44-23.74,25.49-31.29-25.49,31.29,55.92,26.19,26.85,65.81,15.16-4.35,25.25-12.93,25.32-23.3-.06,10.18,26.65,15.22,26.94,33.4,1.06,66.78-119.34,62.38-159.9,44.8-53.96-23.39-6.69-59.45-15.13-73.83Z"/>
    <path class="cls-7" d="m1072.61,496.32c0,3.4-4.54,6.16-10.15,6.16h-308.76c-5.61,0-10.15-2.76-10.15-6.16v-104.81c0-3.4,4.54-6.16,10.15-6.16h308.76c5.61,0,10.15,2.75,10.15,6.16v104.81Z"/>
    <path class="cls-3" d="m828.44,732.83c-43.25,18.15-183.74.69-79.16-138.25,10.79-24.3,27.19-62.53,40.09-93.36,5.56-13.23,10.46-25.09,14-33.89,11.09.61,20.3,2.21,27.87,4.69,46.98,15.3,44.13,67.33,11.36,122.55,25.89,18.94,48.18,84.62-14.16,138.25Z"/>
    <rect class="cls-9" x="743.55" y="418.28" width="329.06" height="25.63"/>
    <rect class="cls-6" x="788.73" y="418.28" width="70.56" height="25.63"/>
    <path class="cls-10" d="m821.38,492.85c-4.31,7.69-18.8,11.89-32,8.38,5.56-13.23,10.46-25.09,14-33.89,11.09.61,20.3,2.21,27.87,4.69.35,3.73-.41,4.02-9.87,20.82Z"/>
    <g>
      <polygon class="cls-8" points="1046.62 644.45 1020.07 688.26 1015.13 661.84 1046.62 644.45"/>
      <polygon class="cls-8" points="1057.56 596.03 1018.01 636.87 1007.07 613.49 1057.56 596.03"/>
      <polygon class="cls-8" points="1062.42 549.23 1022.87 590.06 1011.94 566.69 1062.42 549.23"/>
      <path class="cls-3" d="m891.83,615.04l31.98-12.75c-11.64.36-23.28-2.91-30.04-9.41-11.15-10.66-5.37-23.19,9.57-29.14l114.98-45.91c15.56-6.2,36.31-3.43,46.41,6.2l.45.4c10.05,9.65,5.59,22.54-10,28.69l-29.09,11.69c14.94-.35,23.02,4.33,30.27,11.27,9.48,9.12,5.25,21.15-9.41,27.04l-31.32,12.48c29.64.83,46.62,27.25,18.55,38.41,0,0-120.57,54.5-141.91,49.95-9.98-1.3-18.49-5.96-23.31-11.77-7.17-8.63-6.21-19.79,10.07-26.29l31.26-12.49c-28.51-.7-47.09-26.99-18.46-38.36Z"/>
      <path class="cls-10" d="m898.81,587.04c-8.17-9.7,7.19-19.71,39.27-27.03l21.66,22.51c-29.49,15.56-51.33,15.95-60.92,4.52Z"/>
      <path class="cls-10" d="m889.33,636.2c-5.93-10.3,7.04-18.42,39.28-27.04l21.65,22.52c-29.48,15.56-53.89,16.7-60.92,4.52Z"/>
      <path class="cls-10" d="m875.47,686.45c-8.05-9.74,10.01-17.51,39.27-27.05l21.66,22.52c-29.51,15.57-49.51,18.36-60.92,4.53Z"/>
      <path class="cls-3" d="m1015.63,661.63c14.31.4,21.17,4.93,27.98,11.42,9.45,9.07,5.27,21.15-9.42,26.99,0,0-86.84,36.45-126.7,47.07-7.14,1.91-24.69,7.78-38.51-8.89-7.17-8.63-6.21-19.8,10.07-26.3l136.59-50.29Z"/>
      <path class="cls-10" d="m875.47,732.49c-8.05-9.74,10.01-17.51,39.27-27.04l21.66,22.51c-29.51,15.57-49.51,18.36-60.92,4.53Z"/>
    </g>
  </g>
  <image width="1500" height="1500" transform="translate(1183.63 -283.29) scale(.24)" xlink:href="logopng-01.png"/>
</svg>