<?xml version="1.0" encoding="UTF-8"?>
<svg id="Layer_1" data-name="Layer 1" xmlns="http://www.w3.org/2000/svg" xmlns:xlink="http://www.w3.org/1999/xlink" viewBox="0 0 360 360">
  <defs>
    <style>
      .cls-1 {
        fill: #fdb;
      }

      .cls-1, .cls-2, .cls-3, .cls-4, .cls-5, .cls-6, .cls-7, .cls-8, .cls-9, .cls-10 {
        stroke-width: 0px;
      }

      .cls-2 {
        fill: url(#linear-gradient);
      }

      .cls-3 {
        fill: #fcb87a;
      }

      .cls-4 {
        fill: #842d06;
      }

      .cls-5 {
        fill: #f75c06;
      }

      .cls-6 {
        fill: #fff;
      }

      .cls-7 {
        fill: #c44405;
      }

      .cls-8 {
        fill: #f49d56;
      }

      .cls-9 {
        fill: url(#linear-gradient-2);
      }

      .cls-10 {
        fill: #ffd19f;
      }
    </style>
    <linearGradient id="linear-gradient" x1="133.6" y1="115.19" x2="165.01" y2="115.19" gradientUnits="userSpaceOnUse">
      <stop offset=".13" stop-color="#6d72f5"/>
      <stop offset=".45" stop-color="#a35be3"/>
      <stop offset=".83" stop-color="#c750b9"/>
      <stop offset=".95" stop-color="#e0499e"/>
    </linearGradient>
    <linearGradient id="linear-gradient-2" x1="135.64" y1="129.61" x2="163.51" y2="129.61" xlink:href="#linear-gradient"/>
  </defs>
  <path class="cls-1" d="m147.19,125.12c-.7.02-1.4,0-2.1,0-.96,0-1.66-.53-1.46-1.08h3.54c1.1.06,1.51,1.04.02,1.08Z"/>
  <path class="cls-3" d="m135.64,148.59c4.76-5.04,18.24,2.88,18.24,2.88l7.43.06s-2.41,9.86-13.53,9.71c-1.75,1.45-4.35,4.08-4.35,4.08l-13.51-4.83,5.06-5.85.65-6.06Z"/>
  <g>
    <path class="cls-7" d="m149.57,126.83v33.24c-3.22.02-6.45-1.09-6.45-3.39v-29.85h6.45Z"/>
    <path class="cls-5" d="m156.02,126.83v29.85c0,2.22-3.22,3.37-6.45,3.39v-33.24h6.45Z"/>
  </g>
  <rect class="cls-4" x="143.12" y="135.65" width="12.9" height="2.22"/>
  <path class="cls-2" d="m135.48,111.83c1.88.78,2.84,1.9,3.05,3.54,1.22-1.05,2.88-2.18,2.39-3.67-.4-1.22-3.41-1.97-1.82-3.41.92,2.38,10.47.57,6.78,6.35,1.17.22,5.25-.98,1.47-5.57-2.08-2.52,1.59-4.19,4.3-5.52-4.3,5.52,9.44,4.62,4.53,11.62,2.56-.77,4.26-2.28,4.27-4.11-.01,1.8,4.5,2.69,4.54,5.9.18,11.79-20.14,11.01-26.98,7.91-9.1-4.13-1.13-10.5-2.55-13.03Z"/>
  <path class="cls-6" d="m142.37,117.34c.94.38,1.43.91,1.53,1.7.61-.5,1.45-1.05,1.2-1.76-.2-.59-1.71-.95-.91-1.63.46,1.14,5.25.27,3.41,3.05.58.11,2.64-.47.74-2.67-1.04-1.21.8-2.01,2.16-2.65-2.16,2.65,4.74,2.22,2.27,5.57,1.28-.37,2.14-1.09,2.14-1.97,0,.86,2.26,1.29,2.28,2.83.09,5.66-10.11,5.28-13.54,3.79-4.57-1.98-.57-5.04-1.28-6.25Z"/>
  <path class="cls-7" d="m163.51,135.13c0,.29-.38.52-.86.52h-26.15c-.48,0-.86-.23-.86-.52v-8.88c0-.29.38-.52.86-.52h26.15c.47,0,.86.23.86.52v8.88Z"/>
  <path class="cls-3" d="m142.83,155.16c-3.66,1.54-15.56.06-6.71-11.71.91-2.06,2.3-5.3,3.4-7.91.47-1.12.89-2.13,1.19-2.87.94.05,1.72.19,2.36.4,3.98,1.3,3.74,5.7.96,10.38,2.19,1.6,4.08,7.17-1.2,11.71Z"/>
  <rect class="cls-9" x="135.64" y="128.52" width="27.87" height="2.17"/>
  <rect class="cls-6" x="139.46" y="128.52" width="5.98" height="2.17"/>
  <path class="cls-10" d="m142.23,134.84c-.37.65-1.59,1.01-2.71.71.47-1.12.89-2.13,1.19-2.87.94.05,1.72.19,2.36.4.03.32-.03.34-.84,1.76Z"/>
  <g>
    <polygon class="cls-8" points="161.31 147.68 159.06 151.39 158.64 149.15 161.31 147.68"/>
    <polygon class="cls-8" points="162.23 143.58 158.88 147.04 157.96 145.05 162.23 143.58"/>
    <polygon class="cls-8" points="162.65 139.61 159.3 143.07 158.37 141.09 162.65 139.61"/>
    <path class="cls-3" d="m148.2,145.19l2.71-1.08c-.99.03-1.97-.25-2.54-.8-.94-.9-.45-1.96.81-2.47l9.74-3.89c1.32-.53,3.08-.29,3.93.52l.04.03c.85.82.47,1.91-.85,2.43l-2.46.99c1.27-.03,1.95.37,2.56.95.8.77.44,1.79-.8,2.29l-2.65,1.06c2.51.07,3.95,2.31,1.57,3.25,0,0-10.21,4.62-12.02,4.23-.85-.11-1.57-.5-1.97-1-.61-.73-.53-1.68.85-2.23l2.65-1.06c-2.41-.06-3.99-2.29-1.56-3.25Z"/>
    <path class="cls-10" d="m148.79,142.81c-.69-.82.61-1.67,3.33-2.29l1.83,1.91c-2.5,1.32-4.35,1.35-5.16.38Z"/>
    <path class="cls-10" d="m147.98,146.98c-.5-.87.6-1.56,3.33-2.29l1.83,1.91c-2.5,1.32-4.56,1.41-5.16.38Z"/>
    <path class="cls-10" d="m146.81,151.24c-.68-.83.85-1.48,3.33-2.29l1.83,1.91c-2.5,1.32-4.19,1.56-5.16.38Z"/>
    <path class="cls-3" d="m158.68,149.13c1.21.03,1.79.42,2.37.97.8.77.45,1.79-.8,2.29,0,0-7.36,3.09-10.73,3.99-.61.16-2.09.66-3.26-.75-.61-.73-.53-1.68.85-2.23l11.57-4.26Z"/>
    <path class="cls-10" d="m146.81,155.13c-.68-.82.85-1.48,3.33-2.29l1.83,1.91c-2.5,1.32-4.19,1.56-5.16.38Z"/>
  </g>
</svg>