<?xml version="1.0" encoding="UTF-8"?>
<svg id="Layer_1" data-name="Layer 1" xmlns="http://www.w3.org/2000/svg" xmlns:xlink="http://www.w3.org/1999/xlink" viewBox="0 0 360 360">
  <defs>
    <style>
      .cls-1 {
        fill: #fdb;
      }

      .cls-1, .cls-2, .cls-3, .cls-4, .cls-5, .cls-6, .cls-7, .cls-8, .cls-9, .cls-10 {
        stroke-width: 0px;
      }

      .cls-2 {
        fill: url(#linear-gradient);
      }

      .cls-3 {
        fill: #fcb87a;
      }

      .cls-4 {
        fill: #842d06;
      }

      .cls-5 {
        fill: #f75c06;
      }

      .cls-6 {
        fill: #fff;
      }

      .cls-7 {
        fill: #c44405;
      }

      .cls-8 {
        fill: #f49d56;
      }

      .cls-9 {
        fill: url(#linear-gradient-2);
      }

      .cls-10 {
        fill: #ffd19f;
      }
    </style>
    <linearGradient id="linear-gradient" x1="102.15" y1="79.93" x2="264.62" y2="79.93" gradientUnits="userSpaceOnUse">
      <stop offset=".13" stop-color="#6d72f5"/>
      <stop offset=".45" stop-color="#a35be3"/>
      <stop offset=".83" stop-color="#c750b9"/>
      <stop offset=".95" stop-color="#e0499e"/>
    </linearGradient>
    <linearGradient id="linear-gradient-2" x1="112.67" y1="154.46" x2="256.83" y2="154.46" xlink:href="#linear-gradient"/>
  </defs>
  <path class="cls-1" d="m172.45,131.28c-3.61.1-7.25-.01-10.86-.01-4.97,0-8.57-2.76-7.58-5.58h18.32c5.71.32,7.8,5.39.12,5.59Z"/>
  <path class="cls-3" d="m112.67,252.66c24.62-26.04,94.32,14.9,94.32,14.9l38.45.33s-12.46,50.98-70,50.23c-9.06,7.49-22.48,21.11-22.48,21.11l-69.85-25,26.17-30.24,3.39-31.33Z"/>
  <g>
    <path class="cls-7" d="m184.75,140.13v171.9c-16.67.09-33.34-5.65-33.34-17.51v-154.4h33.34Z"/>
    <path class="cls-5" d="m218.11,140.13v154.4c0,11.49-16.67,17.41-33.36,17.51v-171.9h33.36Z"/>
  </g>
  <rect class="cls-4" x="151.4" y="185.73" width="66.7" height="11.5"/>
  <path class="cls-2" d="m111.87,62.52c9.71,4.05,14.7,9.82,15.79,18.32,6.3-5.43,14.91-11.27,12.38-18.97-2.08-6.31-17.62-10.19-9.39-17.61,4.75,12.32,54.14,2.93,35.09,32.83,6.03,1.16,27.15-5.05,7.6-28.79-10.75-13.05,8.24-21.68,22.24-28.57-22.24,28.57,48.8,23.91,23.44,60.09,13.22-3.97,22.04-11.8,22.1-21.28-.06,9.3,23.25,13.9,23.5,30.5.92,60.97-104.14,56.95-139.53,40.9-47.09-21.36-5.84-54.28-13.21-67.41Z"/>
  <path class="cls-6" d="m147.48,91.02c4.87,1.95,7.38,4.71,7.93,8.79,3.17-2.61,7.49-5.41,6.21-9.1-1.04-3.03-8.85-4.89-4.71-8.45,2.38,5.91,27.18,1.41,17.62,15.75,3.03.55,13.63-2.43,3.82-13.81-5.39-6.26,4.14-10.4,11.16-13.71-11.16,13.71,24.5,11.47,11.77,28.83,6.64-1.91,11.06-5.66,11.09-10.21-.03,4.46,11.67,6.67,11.8,14.63.46,29.25-52.28,27.33-70.05,19.63-23.64-10.25-2.93-26.04-6.63-32.34Z"/>
  <path class="cls-7" d="m256.83,183.03c0,1.49-1.99,2.7-4.44,2.7H117.12c-2.46,0-4.45-1.21-4.45-2.7v-45.92c0-1.49,1.99-2.7,4.45-2.7h135.27c2.46,0,4.44,1.21,4.44,2.7v45.92Z"/>
  <path class="cls-3" d="m149.86,286.65c-18.95,7.95-80.49.3-34.68-60.57,4.73-10.64,11.91-27.4,17.57-40.9,2.44-5.8,4.58-10.99,6.13-14.85,4.86.27,8.89.97,12.21,2.05,20.58,6.7,19.33,29.5,4.97,53.69,11.34,8.3,21.11,37.07-6.2,60.57Z"/>
  <rect class="cls-9" x="112.67" y="148.85" width="144.16" height="11.23"/>
  <rect class="cls-6" x="132.46" y="148.85" width="30.91" height="11.23"/>
  <path class="cls-10" d="m146.77,181.51c-1.89,3.37-8.24,5.21-14.02,3.67,2.44-5.8,4.58-10.99,6.13-14.85,4.86.27,8.89.97,12.21,2.05.15,1.63-.18,1.76-4.32,9.12Z"/>
  <g>
    <polygon class="cls-8" points="245.44 247.93 233.81 267.12 231.65 255.55 245.44 247.93"/>
    <polygon class="cls-8" points="250.24 226.72 232.91 244.61 228.12 234.37 250.24 226.72"/>
    <polygon class="cls-8" points="252.37 206.21 235.04 224.1 230.25 213.86 252.37 206.21"/>
    <path class="cls-3" d="m177.63,235.04l14.01-5.58c-5.1.16-10.2-1.28-13.16-4.12-4.88-4.67-2.35-10.16,4.19-12.77l50.37-20.11c6.82-2.72,15.91-1.5,20.33,2.71l.2.18c4.4,4.23,2.45,9.88-4.38,12.57l-12.75,5.12c6.55-.15,10.09,1.9,13.26,4.94,4.15,4,2.3,9.27-4.12,11.85l-13.72,5.47c12.99.36,20.42,11.94,8.13,16.83,0,0-52.82,23.88-62.17,21.88-4.37-.57-8.1-2.61-10.21-5.16-3.14-3.78-2.72-8.67,4.41-11.52l13.7-5.47c-12.49-.31-20.63-11.82-8.09-16.8Z"/>
    <path class="cls-10" d="m180.69,222.78c-3.58-4.25,3.15-8.63,17.2-11.84l9.49,9.86c-12.92,6.82-22.49,6.99-26.69,1.98Z"/>
    <path class="cls-10" d="m176.53,244.31c-2.6-4.51,3.08-8.07,17.21-11.85l9.48,9.87c-12.91,6.82-23.61,7.32-26.69,1.98Z"/>
    <path class="cls-10" d="m170.46,266.33c-3.53-4.27,4.38-7.67,17.2-11.85l9.49,9.87c-12.93,6.82-21.69,8.04-26.69,1.98Z"/>
    <path class="cls-3" d="m231.87,255.45c6.27.18,9.28,2.16,12.26,5,4.14,3.98,2.31,9.27-4.13,11.83,0,0-38.04,15.97-55.51,20.62-3.13.84-10.82,3.41-16.87-3.9-3.14-3.78-2.72-8.67,4.41-11.52l59.84-22.03Z"/>
    <path class="cls-10" d="m170.46,286.5c-3.53-4.27,4.38-7.67,17.2-11.85l9.49,9.86c-12.93,6.82-21.69,8.04-26.69,1.98Z"/>
  </g>
</svg>